<svg width="21" height="13" viewBox="0 0 21 13" fill="none" xmlns="http://www.w3.org/2000/svg">
<rect width="20.4011" height="12.9595" fill="black" fill-opacity="0"/>
<rect width="20.4011" height="12.9595" fill="black" fill-opacity="0"/>
<rect width="20.4011" height="12.9595" fill="black" fill-opacity="0"/>
<rect width="20.4011" height="12.9595" fill="black" fill-opacity="0"/>
<path d="M8.3932 5.8577C8.81656 5.64127 9.13663 5.40022 9.35596 5.13974C9.74616 4.6706 9.93871 4.04855 9.93871 3.27746C9.93871 2.5271 9.74616 1.88561 9.36106 1.34779C8.71837 0.471726 7.63065 0.0233271 6.09279 0H0V12.6394H5.6809C6.32104 12.6394 6.914 12.5837 7.46232 12.4696C8.01065 12.3543 8.48501 12.1431 8.88669 11.8346C9.24374 11.5664 9.54213 11.2333 9.77932 10.8406C10.1542 10.2471 10.3417 9.57448 10.3417 8.82542C10.3417 8.09969 10.1772 7.48152 9.85073 6.97351C9.52046 6.46549 9.03589 6.09356 8.3932 5.8577ZM2.51337 2.19534H5.25755C5.8607 2.19534 6.35802 2.26143 6.74823 2.39232C7.19964 2.58283 7.42534 2.97032 7.42534 3.56127C7.42534 4.09131 7.25319 4.46196 6.91272 4.6706C6.5697 4.87925 6.12467 4.98422 5.57889 4.98422H2.51337V2.19534ZM6.85279 10.2238C6.5493 10.3728 6.12212 10.4467 5.57507 10.4467H2.51337V7.07589H5.61715C6.15782 7.07978 6.57863 7.15235 6.87957 7.28842C7.41514 7.53465 7.68165 7.98564 7.68165 8.64528C7.68165 9.42285 7.40622 9.94642 6.85279 10.2238Z" fill="#1C1C1C"/>
<path d="M18.4403 0.589661H13.0374V2.16294H18.4403V0.589661Z" fill="#1C1C1C"/>
<path d="M20.3174 6.79856C20.2052 6.06635 19.9578 5.42226 19.5727 4.8663C19.1506 4.23647 18.615 3.77511 17.9634 3.48352C17.3144 3.19063 16.5837 3.04419 15.7701 3.04549C14.4044 3.04549 13.295 3.47963 12.4368 4.34144C11.5812 5.20584 11.1527 6.44865 11.1527 8.06859C11.1527 9.79609 11.6258 11.0441 12.5771 11.81C13.5245 12.5772 14.6186 12.9595 15.8607 12.9595C17.3641 12.9595 18.5334 12.5046 19.3687 11.5975C19.903 11.0247 20.2052 10.4609 20.2715 9.90754H17.7823C17.6382 10.181 17.4712 10.3948 17.2799 10.5503C16.9331 10.8354 16.4817 10.978 15.9282 10.978C15.4016 10.978 14.9553 10.8601 14.5829 10.6255C13.9683 10.2497 13.647 9.59133 13.6061 8.65436H20.399C20.4092 7.84698 20.3837 7.22622 20.3174 6.79856ZM13.6674 7.0409C13.7566 6.4331 13.9734 5.95101 14.3177 5.59462C14.662 5.23953 15.1491 5.06069 15.7727 5.05939C16.3478 5.05939 16.8285 5.22657 17.22 5.56222C17.6064 5.90047 17.8244 6.39163 17.8691 7.0409H13.6674Z" fill="#1C1C1C"/>
</svg>
