<?xml version="1.0" encoding="UTF-8"?>
<svg width="15px" height="15px" viewBox="0 0 15 15" version="1.1" xmlns="http://www.w3.org/2000/svg" xmlns:xlink="http://www.w3.org/1999/xlink">
    <!-- Generator: Sketch 62 (91390) - https://sketch.com -->
    <title>Icon Shape</title>
    <desc>Created with Sketch.</desc>
    <g id="Page-1" stroke="none" stroke-width="1" fill="none" fill-rule="evenodd">
        <g id="icomoon-free:codepen" transform="translate(0.000000, -1.000000)" fill="#FFFFFF" fill-rule="nonzero">
            <g id="Icon">
                <path d="M14.777,5.751 L7.777,1.084 C7.60898157,0.971900231 7.39001843,0.971900231 7.222,1.084 L0.222,5.751 C0.0829110941,5.84377153 -0.000734988601,5.99981086 -0.001,6.167 L-0.001,10.834 C-0.001,11.001 0.083,11.157 0.222,11.25 L7.222,15.917 C7.38978901,16.0286556 7.60821099,16.0286556 7.776,15.917 L14.776,11.25 C14.9150889,11.1572285 14.998735,11.0011891 14.999,10.834 L14.999,6.167 C14.998735,5.99981086 14.9150889,5.84377153 14.776,5.751 L14.777,5.751 Z M7.5,10.232 L4.901,8.5 L7.5,6.768 L10.099,8.5 L7.5,10.232 Z M8,5.899 L8,2.434 L13.599,6.166 L11,7.898 L8,5.898 L8,5.899 Z M7,5.899 L4,7.899 L1.401,6.167 L7,2.435 L7,5.9 L7,5.899 Z M3.099,8.5 L1,9.899 L1,7.101 L3.099,8.5 Z M4,9.101 L7,11.101 L7,14.566 L1.401,10.834 L4,9.102 L4,9.101 Z M8,11.101 L11,9.101 L13.599,10.833 L8,14.565 L8,11.1 L8,11.101 Z M11.901,8.5 L14,7.101 L14,9.899 L11.901,8.5 Z" id="Icon-Shape"></path>
            </g>
        </g>
    </g>
</svg>