<svg width="127" height="16" viewBox="0 0 127 16" fill="none" xmlns="http://www.w3.org/2000/svg">
<path d="M5.14443 1.99319C4.62855 1.9691 4.11397 2.06284 3.63973 2.26729C3.1655 2.47175 2.74407 2.78155 2.40743 3.17319C1.67247 4.13023 1.30842 5.32078 1.38243 6.52519C1.32411 7.7155 1.654 8.89256 2.32243 9.87919C2.65339 10.2774 3.07392 10.5917 3.54963 10.7963C4.02533 11.0008 4.5427 11.0899 5.05943 11.0562C5.90338 11.0227 6.73833 10.8698 7.53943 10.6022V11.7812C6.68852 12.0855 5.79109 12.2391 4.88743 12.2352C4.21802 12.28 3.54715 12.1728 2.92508 11.9215C2.30301 11.6702 1.74588 11.2814 1.29543 10.7842C0.372308 9.56358 -0.0828687 8.05259 0.012427 6.52519C-0.0318973 5.4947 0.173969 4.4688 0.612427 3.53519C1.00978 2.74032 1.59672 2.0555 2.32143 1.54119C3.14858 1.04871 4.09693 0.797254 5.05943 0.81519C6.06632 0.780015 7.06591 0.998365 7.96643 1.45019L7.45343 2.53919C6.71985 2.2303 5.93973 2.04643 5.14543 1.99519L5.14443 1.99319Z" fill="#1C1C1C"/>
<path d="M15.8364 9.15212C15.8589 9.58375 15.7775 10.0145 15.599 10.4081C15.4204 10.8017 15.15 11.1467 14.8104 11.4141C14.0227 12.0001 13.0534 12.2891 12.0734 12.2301C11.0749 12.2865 10.0774 12.1016 9.16541 11.6911V10.4211C9.60653 10.6131 10.064 10.7651 10.5324 10.8751C11.0643 11.0166 11.6084 11.1077 12.1574 11.1471C12.7908 11.1952 13.4226 11.0359 13.9574 10.6931C14.1554 10.5282 14.3126 10.3197 14.4167 10.084C14.5208 9.84821 14.569 9.59157 14.5574 9.33412C14.5785 9.01124 14.4877 8.69094 14.3004 8.42712C14.0861 8.14472 13.8262 7.90003 13.5314 7.70312C13.0326 7.43206 12.5188 7.18967 11.9924 6.97712C11.1858 6.73817 10.4691 6.26351 9.93441 5.61412C9.50732 5.04167 9.29527 4.3372 9.33541 3.62412C9.33533 3.22996 9.41911 2.84029 9.58118 2.48098C9.74324 2.12168 9.97989 1.80096 10.2754 1.54012C10.9546 1.01027 11.8063 0.751538 12.6654 0.814121C13.6725 0.796903 14.6698 1.0143 15.5784 1.44912L15.2354 2.53812C14.4246 2.1839 13.5502 1.99847 12.6654 1.99312C12.1175 1.97978 11.5793 2.13856 11.1264 2.44712C10.9517 2.60627 10.8152 2.80296 10.7274 3.02241C10.6396 3.24185 10.6027 3.47835 10.6194 3.71412C10.6172 4.02476 10.6756 4.33285 10.7914 4.62112C10.9522 4.8953 11.19 5.11614 11.4754 5.25612C11.9436 5.52927 12.4293 5.77114 12.9294 5.98012C13.7811 6.27571 14.5654 6.73804 15.2364 7.34012C15.6267 7.86354 15.8372 8.4992 15.8364 9.15212Z" fill="#1C1C1C"/>
<path d="M23.8745 9.15303C23.8987 9.58536 23.8181 10.0171 23.6397 10.4117C23.4612 10.8062 23.1901 11.1518 22.8495 11.419C22.0619 12.0052 21.0925 12.2942 20.1125 12.235C19.1135 12.2897 18.1161 12.1032 17.2045 11.691V10.425C17.6464 10.6167 18.1046 10.7686 18.5735 10.879C19.0794 10.989 19.5948 11.0496 20.1125 11.06C20.7458 11.1082 21.3777 10.9488 21.9125 10.606C22.1104 10.4411 22.2676 10.2326 22.3717 9.99683C22.4758 9.76109 22.5239 9.50448 22.5125 9.24703C22.5336 8.92415 22.4428 8.60386 22.2555 8.34003C22.0407 8.05808 21.7808 7.81347 21.4865 7.61603C20.9879 7.34457 20.474 7.10217 19.9475 6.89003C19.1407 6.65054 18.4239 6.17516 17.8895 5.52503C17.461 4.95169 17.2486 4.2456 17.2895 3.53103C17.2899 3.13744 17.374 2.74843 17.5363 2.38982C17.6985 2.03122 17.9351 1.71121 18.2305 1.45103C18.9107 0.920224 19.764 0.66144 20.6245 0.725034C21.6302 0.708438 22.6261 0.925823 23.5335 1.36003L23.2765 2.62503C22.4668 2.27177 21.5938 2.08669 20.7105 2.08103C20.1626 2.06755 19.6243 2.22635 19.1715 2.53503C18.9953 2.69353 18.8575 2.8901 18.7686 3.10981C18.6797 3.32952 18.642 3.56659 18.6585 3.80303C18.6563 4.11368 18.7147 4.42177 18.8305 4.71003C18.9903 4.98408 19.2281 5.20442 19.5135 5.34303C19.9812 5.61748 20.467 5.86003 20.9675 6.06903C21.82 6.36562 22.6049 6.82896 23.2765 7.43203C23.4938 7.65948 23.6598 7.93089 23.7633 8.22794C23.8668 8.525 23.9054 8.84079 23.8765 9.15403L23.8745 9.15303Z" fill="#1C1C1C"/>
<path d="M29.0925 12.1461H25.6725V0.996142H29.2645C29.9779 0.950398 30.6933 1.04719 31.3689 1.28086C32.0445 1.51453 32.6668 1.88041 33.1995 2.35714C33.6996 2.88832 34.0863 3.51574 34.3361 4.20118C34.5859 4.88663 34.6935 5.61575 34.6525 6.34414C34.7317 7.89801 34.2112 9.42297 33.1985 10.6041C32.6603 11.1345 32.0167 11.5458 31.3094 11.8115C30.602 12.0771 29.8467 12.1911 29.0925 12.1461ZM28.4925 3.44614V9.69614H29.0925C29.4485 9.72302 29.8056 9.66287 30.1332 9.52088C30.4607 9.37889 30.7488 9.15933 30.9725 8.88114C31.5079 8.18478 31.753 7.30822 31.6565 6.43514C31.7377 5.63237 31.5244 4.82744 31.0565 4.17014C30.8426 3.93059 30.5784 3.74129 30.2827 3.61578C29.9871 3.49027 29.6674 3.43166 29.3465 3.44414L28.4925 3.44614Z" fill="#1C1C1C"/>
<path d="M40.2954 12.3271C39.7143 12.3695 39.131 12.286 38.5851 12.0823C38.0393 11.8787 37.5438 11.5597 37.1324 11.1471C36.7295 10.7114 36.4224 10.1961 36.2307 9.63446C36.039 9.07282 35.967 8.47727 36.0194 7.88613C35.9467 6.68079 36.3109 5.48963 37.0454 4.53113C37.4236 4.12236 37.8891 3.80423 38.4073 3.60043C38.9256 3.39664 39.4831 3.31245 40.0384 3.35413C41.0736 3.30969 42.0858 3.66812 42.8624 4.35413C43.224 4.7407 43.5017 5.19789 43.6781 5.69696C43.8545 6.19603 43.9258 6.7262 43.8874 7.25413V8.61013H38.8414C38.8432 8.83077 38.8895 9.04876 38.9777 9.25103C39.0658 9.45329 39.194 9.63564 39.3544 9.78713C39.7166 10.0825 40.1701 10.2429 40.6374 10.2411C41.0938 10.231 41.5478 10.1713 41.9914 10.0631H42.0064C42.4862 9.94758 42.9471 9.76441 43.3754 9.51913V11.6911C42.9555 11.9351 42.4898 12.0897 42.0074 12.1451C41.4436 12.2544 40.8715 12.3149 40.2974 12.3261L40.2954 12.3271ZM40.1194 5.43813C39.9589 5.43014 39.7986 5.45865 39.6507 5.52153C39.5028 5.5844 39.371 5.68 39.2654 5.80113C39.0045 6.07036 38.8525 6.42653 38.8384 6.80113H41.2364C41.2534 6.61982 41.2317 6.43698 41.173 6.26462C41.1142 6.09226 41.0196 5.93431 40.8954 5.80113C40.8131 5.67546 40.6975 5.57502 40.5616 5.51095C40.4257 5.44689 40.2747 5.42168 40.1254 5.43813H40.1194Z" fill="#1C1C1C"/>
<path d="M51.6714 9.51609C51.7052 9.90669 51.6451 10.2997 51.4962 10.6624C51.3473 11.0251 51.1139 11.3469 50.8154 11.6011C50.0623 12.1168 49.1611 12.3718 48.2494 12.3271C47.7345 12.3461 47.219 12.3142 46.7104 12.2321C46.2442 12.1547 45.7863 12.0342 45.3424 11.8721V9.51409C45.7694 9.69509 46.2824 9.87709 46.7964 10.0581C47.2464 10.1574 47.7041 10.218 48.1644 10.2391C48.7644 10.2391 49.1054 10.0581 49.1054 9.78509C49.1054 9.60409 49.0194 9.51309 48.8484 9.42209C48.6774 9.33109 48.1644 9.05909 47.3944 8.69609C46.801 8.46402 46.2726 8.09175 45.8544 7.61109C45.5712 7.14753 45.4227 6.61429 45.4254 6.07109C45.4007 5.70773 45.466 5.34388 45.6155 5.01177C45.765 4.67967 45.994 4.38954 46.2824 4.16709C47.0146 3.68349 47.8879 3.45986 48.7624 3.53209C49.2797 3.5476 49.7946 3.60816 50.3014 3.71309C50.8127 3.81384 51.3039 3.99796 51.7554 4.25809L50.9854 6.15809C50.6077 5.95327 50.2041 5.80055 49.7854 5.70409C49.4502 5.61521 49.1079 5.55565 48.7624 5.52609C48.3354 5.52609 48.0784 5.61709 48.0784 5.88909C48.0784 6.07009 48.1644 6.16109 48.3354 6.25209C48.5064 6.34309 48.9354 6.52409 49.7024 6.88709C50.1694 7.05083 50.6038 7.29595 50.9854 7.61109C51.2394 7.83896 51.4436 8.11674 51.5854 8.42709C51.6691 8.78295 51.6981 9.14949 51.6714 9.51409V9.51609Z" fill="#1C1C1C"/>
<path d="M56.1174 12.1451H53.2944V3.53314H56.1174V12.1431V12.1451ZM54.3714 2.63914C54.214 2.64867 54.0563 2.62423 53.9091 2.56746C53.7619 2.51069 53.6287 2.42294 53.5184 2.31014C53.299 2.04323 53.1889 1.70302 53.2104 1.35814C53.2104 0.845143 53.3164 0.529143 53.5494 0.358143C53.8723 0.120828 54.2637 -0.00484522 54.6644 0.000142955C55.2594 0.000142955 55.6234 0.119143 55.7774 0.363143C56.0104 0.527143 56.1184 0.845143 56.1184 1.36314C56.1184 2.23914 55.6434 2.63014 54.5794 2.63014C54.5103 2.6368 54.4409 2.6398 54.3714 2.63914Z" fill="#1C1C1C"/>
<path d="M60.8205 15.8611C59.892 15.9331 58.9645 15.7109 58.1695 15.2261C57.8752 15.0473 57.6333 14.794 57.4681 14.4919C57.3029 14.1898 57.2202 13.8494 57.2285 13.5051C57.229 13.0091 57.4133 12.5308 57.7457 12.1626C58.0781 11.7944 58.5351 11.5623 59.0285 11.5111C58.764 11.3925 58.5331 11.21 58.3565 10.9801L58.3445 10.9671C58.184 10.7585 58.094 10.5043 58.0875 10.2411C58.0932 9.99051 58.1515 9.74387 58.2585 9.51714C58.5089 9.2401 58.7951 8.99764 59.1095 8.79614C58.6907 8.5931 58.3363 8.27814 58.0855 7.88614C57.8309 7.41364 57.7119 6.88002 57.7415 6.34414C57.7313 5.93522 57.8102 5.52897 57.9727 5.15358C58.1352 4.77819 58.3774 4.44262 58.6825 4.17014C59.405 3.58552 60.321 3.29421 61.2485 3.35414C61.5081 3.34824 61.7673 3.37887 62.0185 3.44514C62.2696 3.51118 62.5288 3.54181 62.7885 3.53614H65.6955V4.98614L64.5835 5.43814C64.7601 5.74124 64.8491 6.08744 64.8405 6.43814C64.8507 6.84708 64.7719 7.25337 64.6094 7.62878C64.4469 8.0042 64.2047 8.33975 63.8995 8.61214C63.1075 9.18242 62.1329 9.44056 61.1625 9.33714C60.9305 9.36467 60.6954 9.33373 60.4785 9.24714C60.4098 9.35501 60.3794 9.48291 60.3925 9.61014C60.3925 9.79114 60.4795 9.88214 60.7365 9.97114C61.0136 10.0513 61.3027 10.0821 61.5905 10.0621H62.9595C64.7745 10.0621 65.6955 10.8861 65.6955 12.5111C65.7196 12.9959 65.6133 13.4782 65.3876 13.9079C65.162 14.3375 64.8252 14.6988 64.4125 14.9541C63.3243 15.5885 62.0793 15.9029 60.8205 15.8611ZM60.6505 12.4151C60.431 12.4156 60.2139 12.4609 60.0125 12.5481H60.0065L59.9795 12.5581L59.8795 12.5941C59.7946 12.676 59.7279 12.7749 59.6837 12.8843C59.6396 12.9938 59.6191 13.1112 59.6235 13.2291C59.6174 13.356 59.6459 13.482 59.706 13.5939C59.766 13.7058 59.8554 13.7992 59.9645 13.8641C60.2801 14.0273 60.6379 14.0908 60.9905 14.0461C61.5451 14.0666 62.098 13.9737 62.6155 13.7731C62.7775 13.7279 62.9217 13.6342 63.029 13.5046C63.1362 13.375 63.2013 13.2157 63.2155 13.0481C63.2155 12.7871 63.1415 12.6901 62.8725 12.5941C62.5161 12.4671 62.1397 12.4054 61.7615 12.4121L60.6505 12.4151ZM61.3345 4.98514C60.7515 4.98514 60.4795 5.41714 60.4795 6.34414C60.4795 7.27114 60.7515 7.70514 61.3345 7.70514C61.4604 7.71859 61.5873 7.69037 61.6957 7.62481C61.804 7.55924 61.8879 7.45995 61.9345 7.34214C62.1343 7.04908 62.2253 6.69526 62.1915 6.34214C62.1915 5.41714 61.9185 4.98514 61.3345 4.98514Z" fill="#1C1C1C"/>
<path d="M72.1104 12.1453V7.43326C72.138 6.99437 72.0494 6.55595 71.8534 6.16226C71.777 6.02521 71.6655 5.91093 71.5304 5.83116C71.3953 5.75138 71.2414 5.70897 71.0844 5.70826C70.8667 5.68138 70.6462 5.72967 70.4597 5.84515C70.2731 5.96063 70.1315 6.13636 70.0584 6.34326C69.806 7.008 69.6897 7.7167 69.7164 8.42726V12.2333H66.8934V3.62426H69.0324L69.3754 4.71326H69.5454C69.799 4.323 70.154 4.00911 70.5724 3.80526C71.0338 3.62003 71.5273 3.5276 72.0244 3.53326C72.4186 3.50792 72.8137 3.56767 73.1827 3.70847C73.5518 3.84926 73.8863 4.0678 74.1634 4.34926C74.7113 5.00757 74.9868 5.85045 74.9334 6.70526V12.3243H72.1094V12.1443L72.1104 12.1453Z" fill="#1C1C1C"/>
<path d="M85.1964 12.1461H83.8284L82.5444 8.61012H78.3544L77.0734 12.1441H75.8734L80.0644 0.995117H81.0904L85.1904 12.1441L85.1964 12.1461ZM80.4964 2.35812C80.4384 2.67012 80.3404 3.01912 80.2264 3.42312C80.1754 3.60412 80.1264 3.79112 80.0704 3.98812L78.8704 7.43112H82.2034L81.0034 3.98812C80.8364 3.54312 80.6734 3.01012 80.4914 2.35712L80.4964 2.35812Z" fill="#1C1C1C"/>
<path d="M92.8084 12.1452L91.3544 7.25024C91.2684 6.97824 91.0974 6.25024 90.8414 5.25724C90.7127 5.96163 90.5414 6.65757 90.3284 7.34124L88.8744 12.2342H87.4204L85.2834 3.89624H86.5654C87.0784 5.98124 87.4204 7.61224 87.7654 8.69624C87.9668 9.40841 88.1096 10.1358 88.1924 10.8712H88.2784C88.3837 10.5153 88.4688 10.1537 88.5334 9.78824C88.6206 9.41648 88.7345 9.05152 88.8744 8.69624L90.3284 3.89624H91.6114L92.9834 8.69624C93.1949 9.41257 93.3652 10.1404 93.4934 10.8762H93.5834C93.6171 10.5998 93.6747 10.3268 93.7554 10.0602C93.8344 9.69624 94.3474 7.61324 95.2034 3.89624H96.4034L94.2634 12.2342H92.8084V12.1442V12.1452Z" fill="#1C1C1C"/>
<path d="M99.6494 12.3242C99.3215 12.3535 98.9911 12.3121 98.6806 12.2027C98.37 12.0933 98.0866 11.9185 97.8494 11.6902C97.6191 11.4503 97.44 11.166 97.323 10.8547C97.2061 10.5433 97.1539 10.2114 97.1694 9.87919C97.1694 8.17919 98.3924 7.34319 101.017 7.25019L102.386 7.15919V6.61519C102.417 6.09719 102.266 5.58466 101.959 5.16619C101.789 5.00539 101.587 4.88201 101.366 4.80399C101.145 4.72598 100.91 4.69505 100.676 4.71319C99.8929 4.73292 99.1273 4.95143 98.4514 5.34819L98.1104 4.34819C98.2534 4.28719 98.3904 4.22519 98.5214 4.16619C98.7834 4.04819 99.0524 3.92419 99.3934 3.80619C99.8422 3.69979 100.3 3.63882 100.761 3.62419C101.129 3.58257 101.501 3.6175 101.855 3.72679C102.208 3.83607 102.535 4.01734 102.815 4.25919C103.298 4.84346 103.542 5.58782 103.5 6.34419V12.0542H102.645V12.1442L102.385 10.9652H102.3C101.998 11.4229 101.585 11.7973 101.1 12.0542C100.641 12.2456 100.147 12.3377 99.6494 12.3242ZM102.301 8.06519L101.101 8.15619C100.388 8.11703 99.6784 8.27405 99.0484 8.61019C98.845 8.74983 98.6822 8.94097 98.5768 9.1641C98.4714 9.38723 98.4271 9.63434 98.4484 9.88019C98.4361 10.0689 98.4685 10.2578 98.5431 10.4316C98.6176 10.6054 98.7322 10.7591 98.8774 10.8802C99.0247 11.0185 99.2005 11.1228 99.3925 11.1857C99.5845 11.2486 99.7879 11.2685 99.9884 11.2442C100.303 11.2707 100.619 11.2274 100.915 11.1175C101.211 11.0075 101.479 10.8336 101.699 10.6082C101.917 10.3625 102.082 10.0752 102.185 9.76371C102.288 9.45225 102.327 9.12311 102.299 8.79619V8.06519H102.301Z" fill="#1C1C1C"/>
<path d="M109.57 3.62414C109.887 3.60507 110.204 3.63578 110.51 3.71514L110.339 4.89514C110.06 4.82426 109.772 4.79362 109.484 4.80414C109.169 4.807 108.859 4.88194 108.578 5.02321C108.296 5.16448 108.051 5.36833 107.86 5.61914C107.406 6.21759 107.165 6.95162 107.178 7.70314V12.1441H105.978V3.80514H106.919L107.091 5.34514H107.178C107.422 4.8526 107.772 4.41998 108.202 4.07814C108.604 3.7949 109.08 3.63692 109.571 3.62414H109.57Z" fill="#1C1C1C"/>
<path d="M114.788 12.3262C114.332 12.3447 113.878 12.2559 113.462 12.067C113.046 11.878 112.681 11.5942 112.394 11.2382C111.749 10.3124 111.446 9.19098 111.537 8.06622C111.446 6.94178 111.749 5.82064 112.392 4.89422C112.672 4.52433 113.034 4.22502 113.449 4.02027C113.865 3.81553 114.323 3.71105 114.786 3.71522C115.272 3.70829 115.752 3.82043 116.184 4.04182C116.616 4.26322 116.987 4.58712 117.265 4.98522H117.351L117.265 4.35022V0.272217H118.465V12.1452H117.523L117.352 11.0582C117.063 11.4649 116.677 11.7935 116.23 12.0148C115.783 12.236 115.287 12.343 114.788 12.3262ZM114.871 4.71222C114.544 4.70265 114.22 4.78191 113.934 4.9416C113.648 5.10128 113.41 5.33544 113.246 5.61922C112.819 6.36155 112.61 7.21017 112.646 8.06622C112.593 8.91327 112.77 9.75896 113.159 10.5132C113.647 10.9723 114.29 11.2311 114.959 11.2382C115.295 11.2589 115.63 11.2045 115.942 11.0789C116.253 10.9533 116.532 10.7597 116.759 10.5122C117.152 9.82496 117.33 9.03634 117.271 8.24722V7.97222C117.359 7.08336 117.148 6.19063 116.671 5.43522C116.464 5.16413 116.187 4.95393 115.871 4.8267C115.554 4.69948 115.209 4.65993 114.871 4.71222Z" fill="#1C1C1C"/>
<path d="M126.077 9.87907C126.101 10.2291 126.035 10.5794 125.885 10.8965C125.736 11.2137 125.507 11.4873 125.221 11.6911C124.549 12.1632 123.734 12.3873 122.914 12.3251C122.053 12.3681 121.196 12.1807 120.431 11.7821V10.6031C120.809 10.8081 121.213 10.9608 121.631 11.0571C122.052 11.1617 122.482 11.2224 122.914 11.2381C123.414 11.261 123.911 11.1679 124.368 10.9661C124.539 10.8644 124.678 10.7166 124.768 10.5397C124.859 10.3628 124.898 10.164 124.88 9.96607C124.883 9.80544 124.845 9.64682 124.77 9.50453C124.695 9.36224 124.587 9.24076 124.453 9.15107C124.004 8.77213 123.479 8.49388 122.913 8.33507C122.371 8.16116 121.852 7.91853 121.371 7.61307C121.08 7.43989 120.843 7.18832 120.688 6.88707C120.512 6.58373 120.423 6.2377 120.431 5.88707C120.431 5.57568 120.5 5.26815 120.634 4.98675C120.767 4.70536 120.961 4.45714 121.202 4.26007C121.809 3.78719 122.572 3.56045 123.338 3.62507C124.196 3.62198 125.043 3.80771 125.82 4.16907L125.391 5.16907C124.726 4.83867 123.997 4.65325 123.254 4.62507C122.81 4.58804 122.364 4.68189 121.971 4.89507C121.837 4.9842 121.728 5.10551 121.653 5.24789C121.578 5.39028 121.54 5.54918 121.542 5.71007C121.546 5.90417 121.606 6.09306 121.714 6.25407C121.8 6.43507 121.971 6.52607 122.227 6.70807C122.661 6.96529 123.119 7.1774 123.595 7.34107C124.293 7.56437 124.934 7.93394 125.477 8.42507C125.671 8.61337 125.823 8.83904 125.927 9.08833C126.03 9.33762 126.081 9.6053 126.077 9.87507V9.87907Z" fill="#1C1C1C"/>
</svg>
