<svg width="171" height="36" viewBox="0 0 171 36" fill="none" xmlns="http://www.w3.org/2000/svg">
<rect width="167" height="31" fill="black" fill-opacity="0" transform="translate(4 2)"/>
<path d="M15.484 28.532C14.26 24.248 16.744 14.78 20.848 9.128C22.108 7.976 23.512 7.22 24.916 6.428C23.512 8.048 22.144 10.028 21.676 11.324C21.64 12.296 22.792 13.736 24.412 14.708C24.448 12.404 27.616 6.716 29.416 4.808C28.372 4.556 27.4 4.772 26.572 4.952C27.004 3.116 26.752 1.46 25.204 0.415999C20.128 1.964 16.744 6.608 14.62 11.396C8.5 16.04 1.876 22.052 0.292 28.784C0.436 31.088 2.164 32.816 3.928 33.752C3.784 27.128 7.888 20.9 13 15.752C11.596 20.396 11.056 25.292 11.992 28.712C12.676 29.432 14.08 30.152 15.376 30.476C18.796 30.044 25.384 24.284 25.672 21.332C25.24 19.784 23.692 18.848 22.18 18.74C23.116 20.288 18.76 27.164 15.484 28.532ZM45.2607 12.512C44.8287 13.664 42.4167 14.636 40.0047 15.248C40.0767 14.312 40.0767 13.484 39.8967 12.908C39.2127 11.252 36.7647 10.892 35.8647 11.036C30.7527 12.8 27.2247 20.288 26.7567 24.356C26.5407 26.372 27.1167 28.1 28.5927 28.784C31.4727 29.612 33.8127 28.424 35.5767 26.336C37.7727 23.708 39.2847 19.64 39.8247 16.508C42.8127 15.896 46.9527 14.672 45.2607 12.512ZM36.1527 19.028C35.0367 22.52 33.0927 26.228 30.8607 27.632C30.3927 27.668 30.2847 27.488 30.1407 27.02C29.7447 25.904 30.4647 22.844 30.7887 21.692C31.3647 19.748 34.7487 12.908 37.0167 12.98C37.0167 12.98 37.0167 13.016 37.0167 13.052C35.7207 14.312 34.1007 17.408 36.1527 19.028ZM46.6978 27.02C46.6978 27.956 48.2098 28.784 49.3258 28.784C49.5418 28.064 50.0458 26.588 50.3338 25.796C52.6018 19.784 57.2098 15.86 59.0458 14.204C57.3178 17.84 54.7618 23.276 53.9338 27.02C53.9338 27.992 55.9498 28.82 57.0658 28.784C58.3258 27.128 63.8698 21.98 65.5978 21.296C64.8418 20.36 63.9778 20.612 63.2218 21.188C61.7458 22.304 59.6578 24.644 57.5338 27.02C58.3618 24.284 60.8818 17.948 62.6818 14.06C62.7538 13.916 62.9338 13.412 62.9698 13.232C62.9698 12.692 61.3858 11.648 60.9538 11.432C60.4138 11.216 59.7658 11.54 59.1538 12.08C57.8218 13.376 55.1218 15.608 53.6098 17.912C54.2578 16.544 54.9058 15.212 55.4458 14.06C55.5178 13.916 55.6978 13.412 55.7338 13.232C55.7338 12.692 54.1498 11.648 53.7178 11.432C53.1778 11.216 52.5298 11.54 51.9178 12.08C50.5858 13.376 47.8858 15.608 46.3738 17.948C46.5538 17.48 46.7338 17.048 46.9498 16.58C47.8138 14.888 48.6058 13.448 49.1458 12.656C49.6498 11.828 46.2658 11 45.5098 11.036C43.1338 16.724 41.2978 21.548 39.4618 27.02C39.4618 27.956 40.9738 28.784 42.0898 28.784C42.3058 28.064 42.8098 26.588 43.0978 25.796C45.6538 20 49.9738 15.86 51.8098 14.204C49.2178 19.712 48.4978 22.016 46.6978 27.02ZM68.8861 27.02C68.8861 27.956 70.3981 28.784 71.5141 28.784C71.7301 28.064 72.2341 26.588 72.5221 25.796C74.7901 19.784 79.3981 15.86 81.2341 14.204C79.5061 17.84 76.9501 23.276 76.1221 27.02C76.1221 27.992 78.1381 28.82 79.2541 28.784C80.5141 27.128 86.0581 21.98 87.7861 21.296C87.0301 20.36 86.1661 20.612 85.4101 21.188C83.9341 22.304 81.8461 24.644 79.7221 27.02C80.5501 24.284 83.0701 17.948 84.8701 14.06C84.9421 13.916 85.1221 13.412 85.1581 13.232C85.1581 12.692 83.5741 11.648 83.1421 11.432C82.6021 11.216 81.9541 11.54 81.3421 12.08C80.0101 13.376 77.3101 15.608 75.7981 17.912C76.4461 16.544 77.0941 15.212 77.6341 14.06C77.7061 13.916 77.8861 13.412 77.9221 13.232C77.9221 12.692 76.3381 11.648 75.9061 11.432C75.3661 11.216 74.7181 11.54 74.1061 12.08C72.7741 13.376 70.0741 15.608 68.5621 17.948C68.7421 17.48 68.9221 17.048 69.1381 16.58C70.0021 14.888 70.7941 13.448 71.3341 12.656C71.8381 11.828 68.4541 11 67.6981 11.036C65.3221 16.724 63.4861 21.548 61.6501 27.02C61.6501 27.956 63.1621 28.784 64.2781 28.784C64.4941 28.064 64.9981 26.588 65.2861 25.796C67.8421 20 72.1621 15.86 73.9981 14.204C71.4061 19.712 70.6861 22.016 68.8861 27.02ZM91.2903 27.02C91.5423 27.956 92.9103 28.82 94.0263 28.784C95.5023 27.2 100.65 21.98 102.414 21.296C101.622 20.36 100.794 20.612 100.038 21.188C98.5623 22.304 96.4383 24.644 94.3503 27.02C94.8903 24.392 99.2103 15.14 100.938 12.656C101.442 11.828 98.0223 11 97.3023 11.036C96.4743 12.692 95.6103 14.744 94.7463 16.868C93.8103 18.56 92.8743 20.288 91.9023 21.836C90.3903 24.248 88.9143 26.264 88.4103 25.976C87.2583 25.688 89.3103 20.864 89.4543 20.54C90.4623 18.128 92.1543 14.672 93.4863 12.656C93.9183 11.828 90.7503 10.928 90.0663 11C88.3743 14.636 84.5943 23.528 84.8823 27.164C85.2423 27.884 86.6823 28.532 87.6543 28.568C89.2743 27.956 90.8583 25.832 92.3343 23.42C91.8663 24.896 91.5063 26.12 91.2903 27.02ZM98.6438 27.02C98.6438 27.956 100.156 28.784 101.272 28.784C101.488 28.064 101.992 26.588 102.28 25.796C104.836 20 109.156 15.86 110.992 14.204C109.264 17.84 106.708 23.276 105.88 27.02C105.88 27.992 107.896 28.82 109.012 28.784C110.272 27.128 115.816 21.98 117.544 21.296C116.788 20.36 115.924 20.612 115.168 21.188C113.692 22.304 111.676 24.464 109.552 26.84C110.38 24.104 112.828 17.948 114.628 14.06C114.7 13.916 114.88 13.412 114.916 13.232C114.916 12.692 113.332 11.648 112.9 11.432C112.36 11.216 111.712 11.54 111.1 12.08C109.768 13.376 107.068 15.608 105.556 17.948C106.708 15.752 107.716 13.592 108.328 12.656C108.832 11.828 105.448 11 104.692 11.036C102.352 16.832 100.48 21.548 98.6438 27.02ZM113.844 27.02C114.528 23.78 117.552 15.752 119.82 11.036C120.576 11 123.96 11.828 123.492 12.656C121.728 15.14 117.408 24.392 116.868 27.02C118.992 24.644 121.08 22.304 122.556 21.188C123.312 20.612 124.176 20.36 124.968 21.296C123.204 21.98 118.056 27.2 116.58 28.784C115.428 28.82 114.06 27.956 113.844 27.02ZM123.636 4.196C122.088 6.752 122.196 6.644 121.188 9.272C121.656 9.524 122.844 9.848 123.888 9.992C125.4 7.832 126.948 6.356 128.748 4.412C127.02 4.016 124.932 4.016 123.636 4.196ZM137.959 8.156C136.699 8.192 134.323 8.228 133.063 8.228C133.675 7.112 134.287 5.996 134.899 4.988C135.403 4.16 131.875 3.332 131.119 3.368C130.543 4.52 129.715 6.284 128.815 8.336C127.987 8.336 128.167 8.372 127.375 8.408C127.303 8.408 127.195 8.48 127.087 8.624C127.015 8.732 126.907 8.876 126.835 8.984C126.763 9.128 126.691 9.272 126.655 9.416C126.619 9.524 126.583 9.632 126.583 9.704C126.583 9.74 126.583 9.74 126.583 9.74H126.619C127.447 9.74 127.303 9.776 128.167 9.776C125.395 16.112 122.119 24.32 121.687 27.02C121.903 27.956 123.271 28.82 124.423 28.784C125.827 27.128 131.695 21.944 134.107 21.296C133.315 20.36 131.695 20.612 130.939 21.188C129.463 22.304 126.835 24.644 124.711 27.02C126.043 23.456 128.995 16.184 132.235 9.884C133.315 9.884 135.511 9.92 136.591 9.92C136.663 9.92 136.771 9.92 136.843 9.92C136.915 9.884 136.951 9.848 136.987 9.848C137.095 9.74 137.239 9.596 137.383 9.416C137.563 9.2 137.707 9.02 137.815 8.84C137.959 8.66 138.031 8.516 138.067 8.372C138.103 8.228 138.103 8.156 137.959 8.156ZM140.345 28.28C142.181 26.408 147.149 21.944 148.769 21.296C147.977 20.36 147.149 20.612 146.393 21.188C144.917 22.304 143.225 23.528 141.137 25.904C142.649 21.764 143.585 19.424 147.293 12.656C147.797 11.828 144.413 11 143.657 11.036C142.793 12.8 141.893 14.636 140.813 17.408C139.985 18.92 139.121 20.468 138.257 21.836C136.745 24.248 135.269 26.264 134.765 25.976C133.613 25.688 135.665 20.864 135.809 20.54C136.817 18.128 138.509 14.672 139.841 12.656C140.273 11.828 137.105 10.928 136.421 11C134.729 14.636 130.949 23.528 131.237 27.164C131.597 27.884 133.037 28.532 134.009 28.568C135.593 27.992 137.177 25.94 138.617 23.564C138.149 25.004 137.609 26.624 137.069 28.46C135.593 29.9 135.413 29.9 133.577 31.664C133.253 33.5 134.117 35.228 135.881 35.66C136.493 35.84 137.249 35.804 138.077 35.588C138.869 32.996 139.625 30.656 140.345 28.28Z" fill="white"/>
</svg>
