<?xml version="1.0" encoding="UTF-8"?>
<svg width="166px" height="166px" viewBox="0 0 166 166" version="1.1" xmlns="http://www.w3.org/2000/svg" xmlns:xlink="http://www.w3.org/1999/xlink">
    <!-- Generator: Sketch 62 (91390) - https://sketch.com -->
    <title>Combined Shape Copy</title>
    <desc>Created with Sketch.</desc>
    <g id="Page-1" stroke="none" stroke-width="1" fill="none" fill-rule="evenodd">
        <g id="Artboard-Copy-2" transform="translate(-98.000000, -39.000000)" fill="#FF7582" fill-rule="nonzero">
            <path d="M180.276652,196.444831 L180.327176,202.442421 L180.324774,202.633037 C180.277514,204.000076 179.578006,204.68929 178.226251,204.700677 C178.009787,204.7025 177.731203,204.672375 177.390499,204.610302 L177.390499,204.610302 L177.383231,203.747539 L177.601233,203.810832 C177.884894,203.885633 178.140523,203.922075 178.368119,203.920157 C178.739199,203.917031 178.99729,203.808937 179.142392,203.595875 C179.287494,203.382812 179.357817,203.011886 179.353363,202.483096 L179.353363,202.483096 L179.302565,196.453036 L180.276652,196.444831 Z M188.95848,195.952831 L189.034036,196.677173 L186.18742,196.974101 L186.416012,199.165581 L188.801264,198.916776 L188.875857,199.631891 L186.490605,199.880695 L186.748553,202.353606 L189.793555,202.035984 L189.869111,202.760326 L185.855244,203.179009 L185.143,196.350821 L188.95848,195.952831 Z M194.213627,195.240887 L195.513421,201.238624 L198.53269,200.584306 L198.686936,201.296056 L194.715646,202.15669 L193.261605,195.447204 L194.213627,195.240887 Z M161.603632,194.726257 C162.310461,194.227051 163.186195,194.085833 164.230836,194.302603 C164.915152,194.444603 165.60567,194.693694 166.302391,195.049876 L166.302391,195.049876 L166.119551,195.931008 L165.866704,195.784928 C165.124707,195.364901 164.531609,195.108801 164.087409,195.016627 C163.360702,194.86583 162.74554,194.995583 162.241921,195.405886 C161.738302,195.816189 161.393502,196.469476 161.207519,197.365747 C161.023422,198.252935 161.095306,198.98716 161.423173,199.568423 C161.751039,200.149685 162.302549,200.520741 163.077703,200.681591 C163.395637,200.747564 163.750933,200.762861 164.14359,200.727482 L164.14359,200.727482 L164.597865,198.538278 L165.547125,198.735256 L164.982581,201.455865 L164.665025,201.475466 C163.938132,201.510824 163.309741,201.473526 162.779851,201.36357 C161.710986,201.141773 160.954316,200.667347 160.509841,199.940292 C160.065365,199.213237 159.960937,198.28197 160.196557,197.146491 C160.427778,196.032207 160.896803,195.225463 161.603632,194.726257 Z M204.784353,192.461182 L205.015789,193.151701 L202.302094,194.061232 L203.0023,196.150381 L205.276174,195.388262 L205.504663,196.069985 L203.230788,196.832104 L204.020916,199.189544 L206.923734,198.216626 L207.155171,198.907145 L203.328728,200.189628 L201.147033,193.680277 L204.784353,192.461182 Z M153.610815,191.335596 L157.245677,192.562002 L157.012852,193.252054 L154.300991,192.337069 L153.596586,194.424807 L155.868924,195.191496 L155.639065,195.872758 L153.366728,195.106069 L152.571862,197.461916 L155.472719,198.440668 L155.239895,199.130721 L151.416038,197.840548 L153.610815,191.335596 Z M213.52392,188.802015 L216.478534,194.998925 L215.620179,195.408179 L210.21476,192.111608 L212.496601,196.897465 L211.742923,197.25681 L208.788308,191.0599 L209.650851,190.648649 L215.052082,193.947217 L212.770241,189.16136 L213.52392,188.802015 Z M145.093532,188.19847 C145.8995,187.883662 146.788255,187.957697 147.759795,188.420574 C148.31536,188.685265 148.922617,189.085913 149.581566,189.622517 L149.581566,189.622517 L149.188519,190.447489 L148.979533,190.245413 C148.363752,189.660694 147.848572,189.269574 147.433992,189.072053 C146.761172,188.751498 146.132101,188.730963 145.546778,189.010449 C144.961456,189.289936 144.471273,189.844259 144.076232,190.673418 C143.699811,191.463493 143.599686,192.180531 143.775855,192.824532 C143.952024,193.468534 144.380705,193.952807 145.0619,194.277353 C145.648175,194.556676 146.362118,194.67588 147.203729,194.634966 L147.203729,194.634966 L146.8446,195.388747 L146.559867,195.389173 C145.897603,195.370005 145.250127,195.209703 144.617439,194.908268 C143.654274,194.449381 143.044938,193.812239 142.789429,192.996843 C142.533921,192.181447 142.652901,191.255873 143.146371,190.220122 C143.63851,189.187163 144.287564,188.513279 145.093532,188.19847 Z M220.109522,185.185972 L226.091487,189.491331 L225.207624,190.063651 L223.547038,188.873164 L221.105707,190.453977 L221.504744,192.461342 L220.745478,192.952983 L219.299639,185.710388 L220.109522,185.185972 Z M137.432464,182.52904 L139.183766,183.647765 L139.361099,183.767432 C139.813456,184.090464 140.101547,184.444835 140.225373,184.830546 C140.364678,185.264471 140.285333,185.71468 139.98734,186.181173 C139.494568,186.952579 138.755354,187.250978 137.769698,187.076369 L137.769698,187.076369 L137.970294,191.019008 L136.961731,190.374743 L136.879194,186.87631 L136.113,186.386868 L134.549782,188.834 L133.736677,188.314592 L137.432464,182.52904 Z M220.326461,186.570736 L220.949908,189.692769 L222.916212,188.419547 L220.326461,186.570736 Z M137.853515,183.662186 L136.505053,185.77313 L136.770875,185.942937 C137.802893,186.602185 138.577773,186.52656 139.095516,185.716061 C139.476748,185.119264 139.234751,184.544513 138.369524,183.99181 L138.369524,183.99181 L137.853515,183.662186 Z M131.094553,177.442254 L134.069713,179.863971 L133.609968,180.428784 L131.390289,178.622013 L129.99934,180.330841 L131.859264,181.844781 L131.405376,182.402398 L129.545451,180.888459 L127.975874,182.816737 L130.350246,184.749425 L129.8905,185.314238 L126.760646,182.766604 L131.094553,177.442254 Z M234.084969,173.948204 L238.943602,178.798475 L238.255387,179.487876 L235.960668,177.197106 L233.653512,179.508239 L235.948231,181.799009 L235.260017,182.48841 L230.401385,177.638139 L231.089599,176.948738 L233.138103,178.993717 L235.445259,176.682584 L233.396755,174.637605 L234.084969,173.948204 Z M124.166584,170.342741 L124.842914,171.043804 L122.759753,173.053469 L125.027067,175.403702 L127.110228,173.394037 L127.786557,174.095101 L122.845727,178.861613 L122.169397,178.16055 L124.502938,175.909339 L122.235624,173.559106 L119.902083,175.810317 L119.225754,175.109253 L124.166584,170.342741 Z M239.736033,167.556573 L240.30935,168.005669 L238.544432,170.258768 L240.27899,171.617497 L241.757859,169.729568 L242.323873,170.172943 L240.845003,172.060872 L242.802315,173.594091 L244.690233,171.183968 L245.26355,171.633064 L242.77493,174.810044 L237.370414,170.576529 L239.736033,167.556573 Z M244.57941,161.316795 C245.010655,161.169401 245.462269,161.240313 245.934252,161.529532 C246.714738,162.007793 247.026907,162.741298 246.870759,163.730047 L246.870759,163.730047 L250.808958,163.455764 L250.183664,164.476197 L246.687385,164.624136 L246.212356,165.399348 L248.68829,166.916535 L248.184177,167.739209 L242.330531,164.152251 L243.416313,162.380337 L243.532644,162.200796 C243.84716,161.742479 244.196082,161.447812 244.57941,161.316795 Z M116.315634,159.109358 L116.824763,159.928939 L112.407924,165.82907 L111.852288,164.934624 L113.073722,163.296667 L111.538994,160.826106 L109.524495,161.187409 L109.047187,160.419053 L116.315634,159.109358 Z M245.485898,162.429897 C244.882076,162.059891 244.311951,162.312593 243.775523,163.188003 L243.775523,163.188003 L243.455605,163.710085 L245.591395,165.01884 L245.756201,164.749889 C246.396037,163.705725 246.305936,162.932394 245.485898,162.429897 Z M115.436172,160.119857 L112.302991,160.684617 L113.539096,162.674463 L115.436172,160.119857 Z M186.830235,86.2600075 L187.013889,86.3754635 C188.003443,86.9939347 188.826984,88.0666138 189.547678,89.5735199 C190.24736,91.03649 190.697974,93.0852813 190.933755,95.7496093 C191.165,98.3626797 191.051255,101.763644 190.597956,105.979066 C190.050054,110.796821 188.912643,116.18167 187.187428,122.137017 L186.924237,123.034599 L186.825,123.363 L187.623459,123.268892 C190.599023,122.938014 193.716993,122.840573 196.97708,122.975799 L197.869718,123.018447 L198.769402,123.072629 L198.882195,123.084412 C199.358436,123.152446 199.788988,123.367722 200.12916,123.707895 C200.535334,124.114068 200.727236,124.646359 200.705053,125.200768 L200.697,125.297 L200.694042,125.374049 C200.660251,125.775649 200.509647,126.147355 200.262601,126.45798 L200.150879,126.587274 L200.027705,126.708543 C199.624589,127.075012 199.111091,127.263079 198.572039,127.234115 L198.50729,127.228347 C194.360536,126.961388 190.471797,127.082357 186.840334,127.589385 L186.0661,127.703942 L185.397,127.814 L185.324139,128.031065 C183.384038,133.674916 181.05972,138.908625 178.357462,143.719433 L177.846361,144.6165 L177.326411,145.503637 C175.219541,149.173669 173.29288,151.983859 171.529473,153.944489 C169.737825,155.936518 168.134096,157.312001 166.675435,158.073041 C165.185941,158.850169 163.885364,159.23149 162.810688,159.172852 C162.069807,159.172852 161.428386,159.071197 160.880159,158.841189 L160.748,158.78 L160.534925,158.68839 C158.916901,157.94459 157.77208,156.57978 157.118281,154.687969 L157.019133,154.384896 L156.932307,154.088188 C156.342261,151.953978 156.360604,149.45939 156.969671,146.563415 C158.561858,139.960523 162.470483,134.413551 168.664986,129.942721 C172.262668,127.456683 176.389753,125.629121 181.038112,124.458074 L181.705709,124.295247 L182.199,124.182 L182.207732,124.158987 C184.252486,117.729562 185.612448,111.961349 186.289013,106.866644 L186.377037,106.176088 L186.453443,105.522145 L186.558618,104.453887 C186.899658,100.78985 186.956647,97.9125555 186.736112,95.8414415 C186.499542,93.6197371 186.137872,92.0575228 185.699252,91.2071382 C185.324058,90.4797206 185.0126,90.0586123 184.906243,89.9678003 L184.884008,89.9519923 L184.729843,89.8631079 C184.314596,89.5896531 183.813234,89.5999904 183.063854,89.9872906 C181.425434,90.8995924 179.865675,92.8147393 178.438859,95.7702877 C176.987748,98.7761597 176.214946,102.305987 176.131,106.34082 C176.131,106.894727 175.916832,107.40873 175.525645,107.799918 C175.227994,108.097569 174.861146,108.299596 174.455041,108.39103 L174.278679,108.423401 L174.066547,108.438477 C173.504505,108.438477 172.976538,108.235412 172.574246,107.833121 C172.171955,107.43083 171.968891,106.902863 171.969052,106.318871 C172.038567,101.568675 172.949362,97.3941981 174.71271,93.8087236 C176.498001,90.1786305 178.59567,87.6724045 181.077643,86.3166357 C183.112284,85.2586226 185.093494,85.216302 186.830235,86.2600075 Z M249.189674,151.877868 L250.021947,152.255208 L249.823868,152.467987 C249.250926,153.09474 248.869641,153.61724 248.680013,154.035489 C248.372268,154.714264 248.36366,155.343611 248.65419,155.923532 C248.944721,156.503452 249.508235,156.983039 250.344733,157.362295 C251.1418,157.723672 251.860607,157.810189 252.501154,157.621846 C253.1417,157.433503 253.617762,156.995719 253.929339,156.308495 C254.197499,155.717032 254.30315,155.000958 254.246291,154.160273 L254.246291,154.160273 L255.006744,154.50505 L255.012566,154.789724 C255.005954,155.452233 254.857953,156.102631 254.568563,156.740918 C254.128015,157.712608 253.502537,158.333911 252.69213,158.604829 C251.881723,158.875746 250.954061,158.77433 249.909142,158.30058 C248.867041,157.828107 248.180976,157.191943 247.850948,156.392086 C247.52092,155.59223 247.578096,154.702232 248.022476,153.722093 C248.27659,153.161611 248.665656,152.546869 249.189674,151.877868 L249.189674,151.877868 Z M111.159342,148.487393 L111.554301,149.357516 L108.154755,154.695769 L112.982672,152.504321 L113.327782,153.264623 L107.076411,156.102193 L106.683369,155.236294 L110.080998,149.893817 L105.253081,152.085265 L104.907971,151.324963 L111.159342,148.487393 Z M180.577,128.917 L180.158888,129.042162 C176.754993,130.088128 173.719655,131.540348 171.056349,133.391511 C165.69518,137.238939 162.378639,141.927841 161.057509,147.457899 C160.613579,149.556481 160.574221,151.317712 160.915753,152.740761 C161.211328,153.972325 161.698839,154.647875 162.394975,154.942759 C163.035928,155.230083 164.320277,154.799308 166.20698,153.333907 C168.299619,151.708556 170.820019,148.390561 173.709517,143.388235 C176.281918,139.09486 178.516715,134.419561 180.413351,129.361348 L180.577,128.917 Z M251.98542,144.158266 L252.679734,144.378056 L251.815974,147.106665 L253.916605,147.771634 L254.640372,145.485263 L255.325841,145.702253 L254.602074,147.988624 L256.972471,148.738989 L257.896428,145.820217 L258.590742,146.040007 L257.372799,149.887479 L250.827674,147.815575 L251.98542,144.158266 Z M108.684542,140.798356 L109.834058,144.458261 L109.139251,144.676489 L108.281632,141.945943 L106.17951,142.606185 L106.898131,144.894178 L106.212176,145.109626 L105.493555,142.821632 L103.121476,143.566662 L104.038864,146.487505 L103.344058,146.705733 L102.134773,142.85553 L108.684542,140.798356 Z M254.302677,135.051697 L255.187101,135.21789 L255.045814,135.473447 C254.639855,136.223232 254.394984,136.821054 254.311203,137.266913 C254.174137,137.996334 254.315467,138.60894 254.735194,139.104732 C255.154921,139.600524 255.814594,139.932944 256.714214,140.101992 C257.604715,140.269326 258.337454,140.183609 258.91243,139.84484 C259.487407,139.50607 259.847996,138.947661 259.9942,138.169612 C260.054166,137.85049 260.062761,137.494969 260.019983,137.103049 L260.019983,137.103049 L257.822602,136.690138 L258.001644,135.737332 L260.732415,136.250472 L260.758002,136.567602 C260.807061,137.293698 260.781619,137.922681 260.681675,138.454551 C260.480074,139.527408 260.020001,140.29289 259.301457,140.750997 C258.582913,141.209104 257.653781,141.331074 256.51406,141.116909 C255.395615,140.906742 254.580169,140.453013 254.067723,139.755724 C253.555276,139.058435 253.397569,138.185519 253.594602,137.136976 C253.723672,136.450104 253.959697,135.755011 254.302677,135.051697 L254.302677,135.051697 Z M107.066433,132.872848 L107.254705,133.828602 L101.233455,135.014716 L101.830546,138.045821 L101.116006,138.186577 L100.330643,134.199718 L107.066433,132.872848 Z M106.316697,124.73939 L106.643251,128.561647 L105.917623,128.623641 L105.673991,125.771969 L103.478619,125.95953 L103.682765,128.349019 L102.96638,128.410223 L102.762235,126.020734 L100.284931,126.232382 L100.545542,129.282793 L99.8199143,129.344787 L99.4763812,125.323791 L106.316697,124.73939 Z M209,123.5 C210.380712,123.5 211.5,124.619288 211.5,126 C211.5,127.380712 210.380712,128.5 209,128.5 C207.619288,128.5 206.5,127.380712 206.5,126 C206.5,124.619288 207.619288,123.5 209,123.5 Z M261.431089,122.911163 L261.621686,122.914772 C262.988399,122.970683 263.673171,123.674538 263.676003,125.026338 C263.676457,125.242809 263.644569,125.521197 263.58034,125.861502 L263.58034,125.861502 L262.717549,125.863309 L262.782221,125.645712 C262.858815,125.36253 262.896874,125.107137 262.896397,124.879534 C262.89562,124.508441 262.789161,124.249671 262.577021,124.103224 C262.364881,123.956776 261.994407,123.884107 261.4656,123.885214 L261.4656,123.885214 L255.43534,123.897847 L255.433299,122.923728 L261.431089,122.911163 Z M98.2025484,116.844157 L99.0652967,116.852932 L98.9979615,117.069719 C98.9178996,117.35194 98.8767113,117.606847 98.8743965,117.83444 C98.8706224,118.205514 98.9738993,118.46557 99.1842271,118.614609 C99.3945549,118.763647 99.7641095,118.840855 100.292891,118.846233 L100.292891,118.846233 L106.322852,118.907562 L106.312945,119.881633 L100.315453,119.820634 L100.124914,119.814688 C98.7589898,119.742019 98.0829015,119.029817 98.0966496,117.678084 C98.0988512,117.461624 98.1341508,117.183648 98.2025484,116.844157 L98.2025484,116.844157 Z M261.808567,113.378993 L262.201963,117.395418 L255.369424,118.064643 L254.995472,114.246732 L255.720275,114.175739 L255.99927,117.024169 L258.192145,116.809384 L257.958368,114.422612 L258.673938,114.352524 L258.907715,116.739296 L261.382202,116.496928 L261.083763,113.449985 L261.808567,113.378993 Z M260.401034,104.558141 L261.236885,108.534721 L254.518462,109.946891 L254.318086,108.993601 L260.323812,107.731236 L259.688336,104.707945 L260.401034,104.558141 Z M102.664826,102.016184 C103.389074,101.567149 104.319666,101.456872 105.456604,101.685353 C106.572318,101.909568 107.381994,102.373515 107.885631,103.077194 C108.389268,103.780872 108.535985,104.655702 108.325783,105.701684 C108.188085,106.386879 107.943337,107.078948 107.59154,107.777894 L107.59154,107.777894 L106.709276,107.600592 L106.853765,107.346833 C107.269121,106.602212 107.52149,106.007516 107.610872,105.562746 C107.7571,104.835106 107.623484,104.220771 107.210025,103.71974 C106.796566,103.218709 106.141126,102.87802 105.243703,102.697673 C104.355376,102.519153 103.621617,102.595649 103.042427,102.927161 C102.463236,103.258673 102.095652,103.812504 101.939676,104.588653 C101.875701,104.906995 101.862637,105.26238 101.900482,105.654807 L101.900482,105.654807 L104.092497,106.095318 L103.901487,107.045797 L101.177386,106.498358 L101.155789,106.180931 C101.115865,105.454275 101.149214,104.825662 101.255839,104.295091 C101.470915,103.224854 101.940578,102.465218 102.664826,102.016184 Z M258.065664,96.0672315 L259.323817,99.9017432 L252.800739,102.042048 L251.604772,98.3970584 L252.296747,98.1700125 L253.189023,100.889431 L255.282578,100.202508 L254.534917,97.9238388 L255.218077,97.6996852 L255.965738,99.9783548 L258.32815,99.2032173 L257.373689,96.2942774 L258.065664,96.0672315 Z M104.708436,92.9025713 L111.226887,95.0569251 L110.023069,98.6993298 L109.331585,98.4707936 L110.229717,95.7533043 L108.137647,95.0618731 L107.385079,97.3389266 L106.702403,97.1133017 L107.454971,94.8362483 L105.094235,94.0560228 L104.13351,96.9628996 L103.442025,96.7343634 L104.708436,92.9025713 Z M254.214552,86.7142108 L254.618421,87.5751133 L251.288056,92.9597767 L256.088112,90.7079583 L256.442729,91.4638726 L250.227433,94.379613 L249.821594,93.514511 L253.153929,88.1340471 L248.353873,90.3858656 L247.999256,89.6299512 L254.214552,86.7142108 Z M109.499933,84.2406812 C110.3137,83.9800297 111.240007,84.0931642 112.278853,84.5800847 C113.314899,85.0656928 113.992867,85.710479 114.312758,86.5144436 C114.632648,87.3184081 114.564226,88.2076121 114.107492,89.1820554 C113.846314,89.7392802 113.449508,90.3490545 112.917075,91.0113783 L112.917075,91.0113783 L112.089638,90.6235481 L112.290391,90.4132902 C112.87121,89.7938298 113.259069,89.2761904 113.453969,88.8603719 C113.77027,88.1855419 113.786833,87.5563536 113.503657,86.9728071 C113.22048,86.3892606 112.663073,85.9025879 111.831436,85.5127891 C111.039001,85.1413645 110.321345,85.0457679 109.678469,85.2259992 C109.035592,85.4062306 108.554035,85.8379614 108.233796,86.5211918 C107.958181,87.109218 107.843487,87.8238994 107.889714,88.6652359 L107.889714,88.6652359 L107.13368,88.3108732 L107.131456,88.0261486 C107.146443,87.3637764 107.302654,86.7153011 107.600088,86.0807229 C108.052885,85.1146799 108.686167,84.5013326 109.499933,84.2406812 Z M248.765061,77.0632645 L249.3319,77.9506528 L248.131159,79.603839 L249.696831,82.054907 L251.706628,81.6683015 L252.19356,82.4305954 L244.942155,83.8315819 L244.422762,83.0184684 L248.765061,77.0632645 Z M247.673646,80.2318455 L245.808842,82.8101043 L248.934674,82.2059912 L247.673646,80.2318455 Z M114.118134,75.1686581 L119.925905,78.829429 L118.81778,80.5874569 L118.699185,80.76551 C118.378893,81.2198092 118.026268,81.5100358 117.641312,81.6361898 C117.208236,81.778113 116.757556,81.7014894 116.289272,81.4063192 C115.514903,80.9182164 115.212044,80.1808184 115.380696,79.1941251 L115.380696,79.1941251 L111.43934,79.4185335 L112.077502,78.4060978 L115.575373,78.3024297 L116.060178,77.5332925 L113.603648,75.9848854 L114.118134,75.1686581 Z M116.676272,77.921631 L116.508075,78.1884746 C115.855072,79.2244553 115.935377,79.9988645 116.748988,80.5117022 C117.348078,80.8893223 117.921356,80.6438575 118.468822,79.7753081 L118.468822,79.7753081 L118.795324,79.2573177 L116.676272,77.921631 Z M119.622685,68.1563317 L124.973687,72.4572877 L122.570382,75.4473408 L122.002742,74.9910907 L123.795776,72.7603014 L122.078393,71.379927 L120.575965,73.2491621 L120.015556,72.7987242 L121.517984,70.9294891 L119.580054,69.3718455 L117.66206,71.7581031 L117.09442,71.301853 L119.622685,68.1563317 Z M238.160891,64.1539329 L238.845918,64.8465004 L236.540657,67.126662 L238.837129,69.4484122 L241.142389,67.1682506 L241.827417,67.8608181 L236.946464,72.6886281 L236.261437,71.9960606 L238.319352,69.9605515 L236.02288,67.6388013 L233.964966,69.6743104 L233.279938,68.9817429 L238.160891,64.1539329 Z M127.244029,60.563035 L132.04174,65.4735758 L131.344974,66.1543322 L129.322155,64.083942 L126.98633,66.3660964 L129.009149,68.4364866 L128.312383,69.1172429 L123.514672,64.2067021 L124.211438,63.5259458 L126.477384,65.8451809 L128.813209,63.5630265 L126.547263,61.2437913 L127.244029,60.563035 Z M231.035498,57.7895912 L234.197042,60.2977909 L229.93022,65.6760498 L226.924936,63.2918186 L227.377565,62.7212871 L229.619718,64.5000908 L230.989137,62.7739604 L229.110381,61.2834555 L229.557244,60.7201919 L231.436,62.2106968 L232.981282,60.2628949 L230.582869,58.3601227 L231.035498,57.7895912 Z M222.882631,52.1843177 L223.899144,52.8159641 L224.025273,56.3130971 L224.797508,56.7929525 L226.330107,54.3265293 L227.149622,54.8357636 L223.526224,60.6669239 L221.761116,59.5701116 L221.582305,59.4526632 C221.125958,59.1352945 220.833473,58.7845412 220.704849,58.4004031 C220.560148,57.9682479 220.633876,57.5170851 220.926032,57.046915 C221.409152,56.269427 222.14459,55.9618388 223.132346,56.1241506 L223.132346,56.1241506 L222.882631,52.1843177 Z M224.145216,57.2450479 C223.105063,56.598712 222.331185,56.683988 221.823583,57.5008758 C221.449818,58.1023783 221.69896,58.6740684 222.571007,59.2159459 L222.571007,59.2159459 L223.091083,59.5391138 L224.413134,57.4115283 Z M141.868395,50.295441 L143.224454,57.5553813 L142.408141,58.0697304 L136.479938,53.6906396 L137.370819,53.1293067 L139.016539,54.3402611 L141.477254,52.7897953 L141.103101,50.7776433 L141.868395,50.295441 Z M141.623616,53.5528736 L139.6417,54.8016538 L142.208363,56.6823862 L141.623616,53.5528736 Z M214.232411,47.9206596 C214.894864,47.9314608 215.544314,48.0835711 216.180759,48.3769907 C217.149643,48.8236746 217.766979,49.4530684 218.032767,50.2651719 C218.298555,51.0772754 218.191275,52.0042782 217.710928,53.0461802 C217.231876,54.0852738 216.591386,54.7673025 215.789459,55.0922662 C214.987531,55.41723 214.097913,55.3544277 213.120603,54.9038596 C212.561739,54.6462071 211.94947,54.2532618 211.283796,53.7250238 L211.283796,53.7250238 L211.66639,52.8951531 L211.877912,53.0945737 C212.50103,53.6714675 213.02111,54.0560485 213.438151,54.2483168 C214.114966,54.5603482 214.744247,54.5729351 215.325992,54.2860774 C215.907738,53.9992197 216.390879,53.4387492 216.775416,52.6046659 C217.141826,51.8098997 217.232886,51.0916542 217.048597,50.4499293 C216.864307,49.8082045 216.429542,49.3293842 215.744302,49.0134686 C215.154546,48.741574 214.439155,48.6313977 213.598127,48.6829396 L213.598127,48.6829396 L213.947706,47.9246821 Z M150.932181,46.1011381 L153.808906,52.3345878 L152.941277,52.7349969 L147.581807,49.3690017 L149.803494,54.1830781 L149.045371,54.5329501 L146.168646,48.2995003 L147.032063,47.901035 L152.395746,51.2650864 L150.174059,46.4510101 L150.932181,46.1011381 Z M205.524038,44.2974085 L209.363864,45.5392459 L207.251313,52.0713644 L203.601272,50.8909052 L203.825373,50.197971 L206.548561,51.0786763 L207.226575,48.9822194 L204.944747,48.244254 L205.165994,47.560147 L207.447822,48.2981124 L208.212908,45.9324262 L205.299936,44.9903427 L205.524038,44.2974085 Z M159.393534,43.2719678 L161.492331,49.8085183 L157.839813,50.9812923 L157.61717,50.2878879 L160.342205,49.4129163 L159.668604,47.3150369 L157.385228,48.0481979 L157.165422,47.3636268 L159.448798,46.6304658 L158.688693,44.2631745 L155.773745,45.1991247 L155.551102,44.5057204 L159.393534,43.2719678 Z M196.05729,42.0673614 C196.783681,42.0228698 197.412491,42.0522675 197.943722,42.1555545 C199.01529,42.3638991 199.777863,42.8287768 200.231442,43.5501878 C200.68502,44.2715988 200.801145,45.2014799 200.579816,46.3398309 C200.362618,47.4569328 199.90377,48.2695089 199.203272,48.7775594 C198.502773,49.2856098 197.628883,49.4378236 196.5816,49.2342008 C195.895554,49.100813 195.201959,48.8604207 194.500816,48.5130238 L194.500816,48.5130238 L194.672567,47.6296633 L194.927231,47.772554 C195.674448,48.1832213 196.270718,48.431847 196.716041,48.518431 C197.444586,48.6600817 198.058069,48.5226069 198.556491,48.1060066 C199.054913,47.6894063 199.391475,47.0318369 199.566177,46.1332985 C199.739109,45.2438668 199.658002,44.5106033 199.322856,43.9335078 C198.98771,43.3564124 198.431579,42.9923176 197.654465,42.8412235 C197.335727,42.7792513 196.980267,42.768421 196.588085,42.8087326 L196.588085,42.8087326 L196.161363,45.0034734 L195.209701,44.8184422 L195.740006,42.090953 Z M168.030469,41.4153935 L169.400686,48.1424989 L168.446164,48.3369216 L167.221301,42.3234348 L164.194103,42.9400325 L164.048749,42.2264139 L168.030469,41.4153935 Z M176.890748,40.5058154 L177.516909,47.3424348 L173.696717,47.6923235 L173.630293,46.9670875 L176.480424,46.706046 L176.279461,44.5118607 L173.891263,44.7305941 L173.825685,44.0145968 L176.213883,43.7958634 L175.987111,41.3198986 L172.938348,41.5991326 L172.871924,40.8738966 L176.890748,40.5058154 Z M184.538001,39.0787202 C184.754471,39.0795941 185.032658,39.1131882 185.372562,39.1795025 L185.372562,39.1795025 L185.369078,40.0422884 L185.151882,39.976284 C184.869175,39.8979545 184.614021,39.8583303 184.386418,39.8574114 C184.015328,39.8559132 183.75591,39.960783 183.608164,40.1720209 C183.460419,40.3832588 183.385479,40.7532799 183.383344,41.2820842 L183.383344,41.2820842 L183.358998,47.3123085 L182.384885,47.3083757 L182.4091,41.3106218 L182.413876,41.1200507 C182.478167,39.753706 183.186209,39.0732625 184.538001,39.0787202 Z" id="Combined-Shape-Copy"></path>
        </g>
    </g>
</svg>