<?xml version="1.0" encoding="UTF-8"?>
<svg width="43px" height="17px" viewBox="0 0 43 17" version="1.1" xmlns="http://www.w3.org/2000/svg" xmlns:xlink="http://www.w3.org/1999/xlink">
    <!-- Generator: Sketch 62 (91390) - https://sketch.com -->
    <title>JelenaHerceg</title>
    <desc>Created with Sketch.</desc>
    <defs>
        <path d="M1.39819336,16.1630859 C1.58374023,16.1728516 1.81689453,16.1044922 2.09765625,15.9580078 C2.37841797,15.8115234 2.7043457,15.5319824 3.07543945,15.1193848 C3.4465332,14.7067871 3.85913086,14.1049805 4.31323242,13.3139648 C5.03588867,12.0981445 5.64135742,10.7553711 6.12963867,9.28564453 C7.10131836,9.10009766 8.15600586,9.04394531 9.29370117,9.1171875 C9.32788086,9.12207031 9.35839844,9.11230469 9.38525391,9.08789062 C9.41210938,9.06347656 9.42553711,9.03417969 9.42553711,9 C9.43041992,8.9609375 9.4206543,8.92919922 9.39624023,8.90478516 C9.37182617,8.88037109 9.3425293,8.86572266 9.30834961,8.86083984 C8.20483398,8.78759766 7.17700195,8.83398438 6.22485352,9 C6.73266602,7.39355469 7.05737305,5.96777344 7.19897461,4.72265625 C7.29663086,3.81445312 7.32104492,3.08447266 7.2722168,2.53271484 C7.22338867,1.98095703 7.13183594,1.56469727 6.99755859,1.28393555 C6.86328125,1.00317383 6.71801758,0.813964844 6.56176758,0.716308594 C6.27368164,0.525878906 5.9465332,0.525878906 5.58032227,0.716308594 C5.10668945,0.975097656 4.68676758,1.47680664 4.32055664,2.22143555 C3.9543457,2.96606445 3.76391602,3.83886719 3.74926758,4.83984375 C3.74926758,4.87890625 3.76147461,4.91064453 3.78588867,4.93505859 C3.81030273,4.95947266 3.84204102,4.97167969 3.88110352,4.97167969 C3.9152832,4.96679688 3.94458008,4.95214844 3.96899414,4.92773438 C3.9934082,4.90332031 4.00561523,4.87402344 4.00561523,4.83984375 C4.02514648,3.89746094 4.20581055,3.07226562 4.54760742,2.36425781 C4.8894043,1.65625 5.27514648,1.18261719 5.70483398,0.943359375 C5.97827148,0.801757812 6.21508789,0.796875 6.4152832,0.928710938 C6.51293945,0.977539062 6.62158203,1.11791992 6.74121094,1.34985352 C6.86083984,1.58178711 6.94873047,1.96142578 7.00488281,2.48876953 C7.06103516,3.01611328 7.0402832,3.75097656 6.94262695,4.69335938 C6.80102539,5.96289062 6.46411133,7.41796875 5.93188477,9.05859375 C4.76489258,9.29785156 3.74682617,9.71777344 2.87768555,10.3183594 C1.57885742,11.2558594 0.763427734,12.4130859 0.431396484,13.7900391 C0.309326172,14.3710938 0.305664063,14.8691406 0.420410156,15.2841797 C0.53515625,15.6992188 0.753662109,15.9726562 1.07592773,16.1044922 C1.15405273,16.1435547 1.26147461,16.1630859 1.39819336,16.1630859 Z M2.3503418,15.4672852 C1.84741211,15.8579102 1.4543457,15.9897461 1.17114258,15.862793 C0.917236328,15.7553711 0.746337891,15.5185547 0.658447266,15.1523438 C0.570556641,14.7861328 0.580322266,14.3491211 0.687744141,13.8413086 C1.00024414,12.5327148 1.77905273,11.4316406 3.02416992,10.5380859 C3.82495117,9.98144531 4.76245117,9.58349609 5.83666992,9.34423828 C5.36303711,10.7456055 4.77954102,12.0249023 4.08618164,13.1821289 C3.43188477,14.3149414 2.85327148,15.0766602 2.3503418,15.4672852 Z M8.01928711,8.98535156 C8.23901367,8.98535156 8.47460938,8.89746094 8.72607422,8.72167969 C8.97753906,8.54589844 9.21557617,8.24316406 9.44018555,7.81347656 C9.4597168,7.77929688 9.46337891,7.74511719 9.45117188,7.7109375 C9.43896484,7.67675781 9.41577148,7.64990234 9.3815918,7.63037109 C9.34741211,7.61572266 9.31323242,7.61328125 9.27905273,7.62304688 C9.24487305,7.6328125 9.21801758,7.65478516 9.19848633,7.68896484 C8.94946289,8.15771484 8.69799805,8.45800781 8.4440918,8.58984375 C8.19018555,8.72167969 7.97045898,8.74609375 7.78491211,8.66308594 C7.64819336,8.60449219 7.54199219,8.49829102 7.46630859,8.34448242 C7.390625,8.19067383 7.37719727,8.00390625 7.42602539,7.78417969 C7.64575195,7.73535156 7.89111328,7.62548828 8.16210938,7.45458984 C8.43310547,7.28369141 8.60522461,7.08349609 8.6784668,6.85400391 C8.70776367,6.73193359 8.70288086,6.63793945 8.66381836,6.57202148 C8.62475586,6.50610352 8.57104492,6.46582031 8.50268555,6.45117188 C8.31225586,6.40722656 8.08642578,6.49023438 7.82519531,6.70019531 C7.56396484,6.91015625 7.36010742,7.19091797 7.21362305,7.54248047 C7.16967773,7.56689453 7.14526367,7.60595703 7.14038086,7.65966797 C7.14038086,7.68408203 7.14526367,7.70605469 7.1550293,7.72558594 C7.04760742,8.29199219 7.22338867,8.68994141 7.68237305,8.91943359 C7.78491211,8.96337891 7.8972168,8.98535156 8.01928711,8.98535156 Z M7.55053711,7.46191406 C7.76049805,7.10546875 7.99487305,6.86865234 8.25366211,6.75146484 C8.33178711,6.72705078 8.38305664,6.71484375 8.4074707,6.71484375 L8.4074707,6.71484375 L8.42211914,6.71484375 C8.42700195,6.72460938 8.42456055,6.74902344 8.41479492,6.78808594 C8.37084961,6.92480469 8.25976562,7.05419922 8.08154297,7.17626953 C7.90332031,7.29833984 7.72631836,7.39355469 7.55053711,7.46191406 Z M9.79174805,9 C9.87963867,9 9.98217773,8.96826172 10.0993652,8.90478516 C10.2165527,8.84130859 10.3435059,8.71923828 10.4802246,8.53857422 C10.6169434,8.35791016 10.7609863,8.09912109 10.9123535,7.76220703 C10.927002,7.72802734 10.9282227,7.69506836 10.9160156,7.66333008 C10.9038086,7.6315918 10.8806152,7.60839844 10.8464355,7.59375 C10.8122559,7.57910156 10.7792969,7.57788086 10.7475586,7.59008789 C10.7158203,7.60229492 10.692627,7.62548828 10.6779785,7.65966797 C10.4777832,8.09912109 10.2946777,8.39819336 10.1286621,8.55688477 C9.96264648,8.71557617 9.82836914,8.77294922 9.72583008,8.72900391 C9.61352539,8.68505859 9.52929687,8.57397461 9.47314453,8.39575195 C9.41699219,8.2175293 9.41577148,8.01123047 9.46948242,7.77685547 L9.46948242,7.77685547 L10.2165527,4.60546875 C10.0993652,4.52246094 10.0090332,4.52490234 9.94555664,4.61279297 L9.94555664,4.61279297 L9.21313477,7.71826172 C9.1496582,8.00634766 9.15820312,8.27001953 9.23876953,8.50927734 C9.31933594,8.74853516 9.45239258,8.90478516 9.63793945,8.97802734 C9.68188477,8.99267578 9.7331543,9 9.79174805,9 Z M11.4836426,8.98535156 C11.7033691,8.98535156 11.9389648,8.89746094 12.1904297,8.72167969 C12.4418945,8.54589844 12.6799316,8.24316406 12.904541,7.81347656 C12.9240723,7.77929688 12.9277344,7.74511719 12.9155273,7.7109375 C12.9033203,7.67675781 12.880127,7.64990234 12.8459473,7.63037109 C12.8117676,7.61572266 12.7775879,7.61328125 12.7434082,7.62304688 C12.7092285,7.6328125 12.682373,7.65478516 12.6628418,7.68896484 C12.4138184,8.15771484 12.1623535,8.45800781 11.9084473,8.58984375 C11.654541,8.72167969 11.4348145,8.74609375 11.2492676,8.66308594 C11.1125488,8.60449219 11.0063477,8.49829102 10.9306641,8.34448242 C10.8549805,8.19067383 10.8415527,8.00390625 10.8903809,7.78417969 C11.1101074,7.73535156 11.3554688,7.62548828 11.6264648,7.45458984 C11.8974609,7.28369141 12.0695801,7.08349609 12.1428223,6.85400391 C12.1721191,6.73193359 12.1672363,6.63793945 12.1281738,6.57202148 C12.0891113,6.50610352 12.0354004,6.46582031 11.967041,6.45117188 C11.7766113,6.40722656 11.5507812,6.49023438 11.2895508,6.70019531 C11.0283203,6.91015625 10.8244629,7.19091797 10.6779785,7.54248047 C10.6340332,7.56689453 10.6096191,7.60595703 10.6047363,7.65966797 C10.6047363,7.68408203 10.6096191,7.70605469 10.6193848,7.72558594 C10.5119629,8.29199219 10.6877441,8.68994141 11.1467285,8.91943359 C11.2492676,8.96337891 11.3615723,8.98535156 11.4836426,8.98535156 Z M11.0148926,7.46191406 C11.2248535,7.10546875 11.4592285,6.86865234 11.7180176,6.75146484 C11.7961426,6.72705078 11.8474121,6.71484375 11.8718262,6.71484375 L11.8718262,6.71484375 L11.8864746,6.71484375 C11.8913574,6.72460938 11.888916,6.74902344 11.8791504,6.78808594 C11.8352051,6.92480469 11.7241211,7.05419922 11.5458984,7.17626953 C11.3676758,7.29833984 11.1906738,7.39355469 11.0148926,7.46191406 Z M14.1276855,9.02197266 C14.4987793,8.98779297 14.8747559,8.56298828 15.2556152,7.74755859 C15.2702637,7.71337891 15.2714844,7.68041992 15.2592773,7.64868164 C15.2470703,7.61694336 15.223877,7.59375 15.1896973,7.57910156 C15.1555176,7.56445312 15.1225586,7.56323242 15.0908203,7.57543945 C15.059082,7.58764648 15.0334473,7.61083984 15.013916,7.64501953 C14.8137207,8.07470703 14.6281738,8.3737793 14.4572754,8.54223633 C14.286377,8.71069336 14.1691895,8.78027344 14.1057129,8.75097656 C14.0812988,8.74609375 14.0593262,8.71191406 14.0397949,8.6484375 C14.0202637,8.58496094 14.0153809,8.48242188 14.0251465,8.34082031 C14.0349121,8.19921875 14.0739746,8.00878906 14.142334,7.76953125 C14.1472168,7.75976562 14.1496582,7.75244141 14.1496582,7.74755859 C14.3742676,6.97607422 14.3669434,6.56591797 14.1276855,6.51708984 C13.9714355,6.48779297 13.7834473,6.59643555 13.5637207,6.84301758 C13.3439941,7.08959961 13.1315918,7.38623047 12.9265137,7.73291016 L12.9265137,7.73291016 L13.2121582,6.56103516 C13.2219238,6.52197266 13.217041,6.48779297 13.1975098,6.45849609 C13.1779785,6.42919922 13.151123,6.40966797 13.1169434,6.39990234 C13.0827637,6.39501953 13.0510254,6.40112305 13.0217285,6.41821289 C12.9924316,6.43530273 12.9729004,6.4609375 12.9631348,6.49511719 L12.9631348,6.49511719 L12.3918457,8.82421875 L12.3918457,8.82421875 L12.3918457,8.8828125 C12.3967285,8.88769531 12.3991699,8.89257812 12.3991699,8.89746094 L12.3991699,8.89746094 C12.4040527,8.90722656 12.4064941,8.91455078 12.4064941,8.91943359 L12.4064941,8.91943359 C12.4162598,8.92919922 12.4211426,8.93652344 12.4211426,8.94140625 C12.4260254,8.94140625 12.4284668,8.94384766 12.4284668,8.94873047 C12.4333496,8.95361328 12.4382324,8.95605469 12.4431152,8.95605469 C12.4431152,8.9609375 12.4455566,8.96337891 12.4504395,8.96337891 L12.4504395,8.96337891 C12.4602051,8.96826172 12.4675293,8.97314453 12.4724121,8.97802734 L12.4724121,8.97802734 L12.4870605,8.97802734 L12.4870605,8.97802734 L12.4870605,8.98535156 L12.5236816,8.98535156 L12.5236816,8.98535156 L12.5401611,8.98352051 L12.5401611,8.98352051 L12.5603027,8.97802734 L12.5603027,8.97802734 L12.5804443,8.97070312 L12.5804443,8.97070312 L12.5969238,8.96337891 L12.5969238,8.96337891 L12.6115723,8.94873047 L12.6115723,8.94873047 L12.6262207,8.93408203 L12.6262207,8.93408203 L12.6335449,8.91760254 L12.6335449,8.91760254 L12.6408691,8.89746094 L12.6408691,8.89746094 L12.7257843,8.67567444 C12.8187103,8.451828 12.9356689,8.22180176 13.0766602,7.9855957 C13.2646484,7.6706543 13.4501953,7.3984375 13.6333008,7.16894531 C13.8164062,6.93945312 13.9519043,6.80761719 14.0397949,6.7734375 C14.0544434,6.79296875 14.0568848,6.86376953 14.0471191,6.98583984 C14.0373535,7.10791016 13.9958496,7.31542969 13.9226074,7.60839844 L13.9226074,7.60839844 C13.8151855,7.95507812 13.7602539,8.22607422 13.7578125,8.42138672 C13.7553711,8.61669922 13.7810059,8.75708008 13.8347168,8.8425293 C13.8884277,8.92797852 13.9470215,8.98046875 14.010498,9 C14.0495605,9.01464844 14.088623,9.02197266 14.1276855,9.02197266 Z M15.3728027,8.99267578 C15.4753418,8.99267578 15.5803223,8.95849609 15.6877441,8.89013672 C15.8635254,8.76806641 16.0246582,8.58984375 16.1711426,8.35546875 C16.1809082,8.5703125 16.2346191,8.72900391 16.3322754,8.83154297 C16.4055176,8.90478516 16.4885254,8.94140625 16.5812988,8.94140625 C16.6105957,8.94140625 16.6398926,8.93896484 16.6691895,8.93408203 C16.9963379,8.83154297 17.2624512,8.44091797 17.4675293,7.76220703 C17.4772949,7.72314453 17.4736328,7.68774414 17.456543,7.65600586 C17.4394531,7.62426758 17.411377,7.60351562 17.3723145,7.59375 C17.3381348,7.58398438 17.3051758,7.58764648 17.2734375,7.60473633 C17.2416992,7.62182617 17.2209473,7.64746094 17.2111816,7.68164062 C17.1184082,7.99414062 17.0158691,8.23217773 16.9035645,8.39575195 C16.7912598,8.55932617 16.6911621,8.65087891 16.6032715,8.67041016 C16.588623,8.67529297 16.5751953,8.67529297 16.5629883,8.67041016 C16.5507812,8.66552734 16.5397949,8.65820312 16.5300293,8.6484375 C16.486084,8.609375 16.4567871,8.50805664 16.4421387,8.34448242 C16.4274902,8.1809082 16.4592285,7.94287109 16.5373535,7.63037109 C16.5617676,7.56201172 16.576416,7.51074219 16.5812988,7.4765625 L16.5812988,7.4765625 L16.5812988,7.42529297 L16.5812988,7.42529297 L16.5739746,7.41796875 L16.5739746,7.41796875 L16.5739746,7.40332031 C16.5690918,7.40332031 16.5666504,7.40087891 16.5666504,7.39599609 C16.5666504,7.39111328 16.564209,7.38867188 16.5593262,7.38867188 L16.5593262,7.38867188 L16.5593262,7.38134766 C16.5544434,7.37158203 16.5495605,7.36669922 16.5446777,7.36669922 L16.5446777,7.36669922 L16.5446777,7.359375 L16.5373535,7.359375 L16.5373535,7.35205078 L16.5227051,7.35205078 L16.5227051,7.35205078 C16.5178223,7.34716797 16.5153809,7.34228516 16.5153809,7.33740234 L16.5153809,7.33740234 L16.5007324,7.33740234 C16.4958496,7.33251953 16.4909668,7.33007812 16.486084,7.33007812 L16.486084,7.33007812 L16.4714355,7.33007812 C16.4714355,7.32519531 16.4689941,7.32275391 16.4641113,7.32275391 L16.4641113,7.32275391 L16.4104004,7.33007812 C16.3778483,7.33984375 16.3518066,7.359375 16.3322754,7.38867188 L16.3322754,7.38867188 C16.3273926,7.39355469 16.3249512,7.3984375 16.3249512,7.40332031 L16.3249512,7.40332031 C16.3200684,7.41308594 16.317627,7.41796875 16.317627,7.41796875 L16.317627,7.41796875 L16.2974854,7.48937988 L16.2974854,7.48937988 L16.2810059,7.55712891 C16.2272949,7.70361328 16.1320801,7.89404297 15.9953613,8.12841797 C15.8586426,8.36279297 15.7072754,8.54101562 15.5412598,8.66308594 C15.4973145,8.69238281 15.4606934,8.71069336 15.4313965,8.71801758 C15.4020996,8.7253418 15.3776855,8.7265625 15.3581543,8.72167969 C15.338623,8.71679688 15.326416,8.71435547 15.3215332,8.71435547 C15.2629395,8.69482422 15.2141113,8.58251953 15.1750488,8.37744141 C15.145752,8.13330078 15.1738281,7.85620117 15.2592773,7.54614258 C15.3447266,7.23608398 15.4973145,6.99804688 15.717041,6.83203125 C15.8684082,6.72949219 15.9929199,6.69775391 16.0905762,6.73681641 C16.1687012,6.78076172 16.2272949,6.8503418 16.2663574,6.94555664 C16.3054199,7.04077148 16.329834,7.11523438 16.3395996,7.16894531 L16.3485514,7.2047526 C16.357232,7.22645399 16.3713379,7.2438151 16.3908691,7.25683594 C16.420166,7.27636719 16.4543457,7.28369141 16.4934082,7.27880859 C16.5324707,7.27392578 16.5617676,7.25683594 16.5812988,7.22753906 C16.6008301,7.19824219 16.6081543,7.1640625 16.6032715,7.125 C16.6032715,7.10546875 16.5910645,7.05419922 16.5666504,6.97119141 C16.5422363,6.88818359 16.5007324,6.80029297 16.4421387,6.70751953 C16.3835449,6.61474609 16.3005371,6.54150391 16.1931152,6.48779297 C16.0075684,6.40966797 15.7976074,6.44873047 15.5632324,6.60498047 C15.3093262,6.79052734 15.1274414,7.05908203 15.0175781,7.41064453 C14.9077148,7.76220703 14.8723145,8.09667969 14.911377,8.4140625 C14.9504395,8.72167969 15.0578613,8.90722656 15.2336426,8.97070312 C15.2775879,8.98535156 15.3239746,8.99267578 15.3728027,8.99267578 Z M19.064209,11.9443359 C19.0983887,11.9443359 19.1276855,11.9333496 19.1520996,11.911377 C19.1765137,11.8894043 19.1911621,11.8613281 19.1960449,11.8271484 C19.1960449,11.7978516 19.1984863,11.7001953 19.2033691,11.5341797 C19.2424316,10.8408203 19.34375,10.0424805 19.5073242,9.13916016 C19.6708984,8.23583984 19.8625488,7.31298828 20.0822754,6.37060547 C21.0100098,6.14111328 22.0061035,5.953125 23.0705566,5.80664062 C22.6848145,7.12988281 22.4504395,8.26269531 22.3674316,9.20507812 C22.3088379,10.1669922 22.4919434,10.6723633 22.916748,10.7211914 L22.916748,10.7211914 L22.9680176,10.7211914 C23.2854004,10.7016602 23.6381836,10.4819336 24.0263672,10.0620117 C24.4145508,9.64208984 24.7648926,9.14648438 25.0773926,8.57519531 C25.1799316,8.37988281 25.2702637,8.19189453 25.3483887,8.01123047 C25.4460449,7.77685547 25.4484863,7.64501953 25.3557129,7.61572266 C25.3068848,7.59130859 25.2629395,7.59130859 25.223877,7.61572266 C25.1262207,7.88427734 24.9968262,8.16748047 24.8356934,8.46533203 C24.532959,9.01220703 24.2033691,9.48217773 23.8469238,9.87524414 C23.4904785,10.2683105 23.1901855,10.4624023 22.9460449,10.4575195 C22.6872559,10.4135742 22.579834,10.003418 22.6237793,9.22705078 C22.7116699,8.27978516 22.9533691,7.12988281 23.348877,5.77734375 C23.8273926,5.71875 24.2961426,5.68212891 24.755127,5.66748047 C24.7893066,5.66748047 24.8186035,5.65527344 24.8430176,5.63085938 C24.8674316,5.60644531 24.8796387,5.57470703 24.8796387,5.53564453 C24.8747559,5.50146484 24.8601074,5.47216797 24.8356934,5.44775391 C24.8112793,5.42333984 24.7819824,5.41113281 24.7478027,5.41113281 C24.3181152,5.42089844 23.8786621,5.45263672 23.4294434,5.50634766 C23.6784668,4.66162109 23.9226074,3.89013672 24.1618652,3.19189453 C24.2790527,2.84521484 24.3815918,2.54248047 24.4694824,2.28369141 C24.5622559,2.02978516 24.6403809,1.81982422 24.7038574,1.65380859 C24.6940918,1.74169922 24.6745605,1.85644531 24.6452637,1.99804688 C24.6403809,2.03710938 24.6477051,2.07006836 24.6672363,2.09692383 C24.6867676,2.1237793 24.713623,2.14208984 24.7478027,2.15185547 C24.7868652,2.15673828 24.8210449,2.14941406 24.8503418,2.12988281 C24.8796387,2.11035156 24.8967285,2.08349609 24.9016113,2.04931641 C25.0187988,1.48779297 24.9919434,1.18994141 24.8210449,1.15576172 C24.767334,1.14111328 24.7172852,1.1484375 24.6708984,1.17773438 C24.6245117,1.20703125 24.5891113,1.24609375 24.5646973,1.29492188 C24.5109863,1.41699219 24.388916,1.74414063 24.1984863,2.27636719 L24.1984863,2.27636719 L24.0373535,2.73779297 C23.7541504,3.54833984 23.4562988,4.48095703 23.1437988,5.53564453 C22.0842285,5.67724609 21.0856934,5.86035156 20.1481934,6.08496094 C20.4899902,4.67871094 20.8024902,3.47387695 21.0856934,2.47045898 C21.3688965,1.46704102 21.5202637,0.931152344 21.5397949,0.862792969 C21.5495605,0.828613281 21.5471191,0.796875 21.5324707,0.767578125 C21.5178223,0.73828125 21.4934082,0.716308594 21.4592285,0.701660156 C21.420166,0.691894531 21.3859863,0.695556641 21.3566895,0.712646484 C21.3273926,0.729736328 21.3054199,0.755371094 21.2907715,0.789550781 C21.2663574,0.857910156 21.1088867,1.40966797 20.8183594,2.44482422 C20.527832,3.47998047 20.2116699,4.71533203 19.869873,6.15087891 C19.2058105,6.31689453 18.6516113,6.46582031 18.2072754,6.59765625 C18.192627,6.75390625 18.2390137,6.82226562 18.3464355,6.80273438 C18.6638184,6.72460937 19.1496582,6.60253906 19.8039551,6.43652344 C19.520752,7.65234375 19.2912598,8.81445312 19.1154785,9.92285156 L19.1154785,9.92285156 L19.1154785,9.90820312 L18.9470215,11.3730469 C18.9470215,11.4462891 18.9445801,11.5146484 18.9396973,11.578125 C18.9396973,11.65625 18.9372559,11.734375 18.932373,11.8125 C18.932373,11.8515625 18.9445801,11.8833008 18.9689941,11.9077148 C18.9934082,11.9321289 19.0227051,11.9443359 19.0568848,11.9443359 L19.0568848,11.9443359 L19.064209,11.9443359 Z M26.0881348,8.98535156 C26.3078613,8.98535156 26.543457,8.89746094 26.7949219,8.72167969 C27.0463867,8.54589844 27.2844238,8.24316406 27.5090332,7.81347656 C27.5285645,7.77929688 27.5322266,7.74511719 27.5200195,7.7109375 C27.5078125,7.67675781 27.4846191,7.64990234 27.4504395,7.63037109 C27.4162598,7.61572266 27.3820801,7.61328125 27.3479004,7.62304688 C27.3137207,7.6328125 27.2868652,7.65478516 27.267334,7.68896484 C27.0183105,8.15771484 26.7668457,8.45800781 26.5129395,8.58984375 C26.2590332,8.72167969 26.0393066,8.74609375 25.8537598,8.66308594 C25.717041,8.60449219 25.6108398,8.49829102 25.5351562,8.34448242 C25.4594727,8.19067383 25.4460449,8.00390625 25.494873,7.78417969 C25.7145996,7.73535156 25.9599609,7.62548828 26.230957,7.45458984 C26.5019531,7.28369141 26.6740723,7.08349609 26.7473145,6.85400391 C26.7766113,6.73193359 26.7717285,6.63793945 26.732666,6.57202148 C26.6936035,6.50610352 26.6398926,6.46582031 26.5715332,6.45117188 C26.3811035,6.40722656 26.1552734,6.49023438 25.894043,6.70019531 C25.6328125,6.91015625 25.4289551,7.19091797 25.2824707,7.54248047 C25.2385254,7.56689453 25.2141113,7.60595703 25.2092285,7.65966797 C25.2092285,7.68408203 25.2141113,7.70605469 25.223877,7.72558594 C25.1164551,8.29199219 25.2922363,8.68994141 25.7512207,8.91943359 C25.8537598,8.96337891 25.9660645,8.98535156 26.0881348,8.98535156 Z M25.6193848,7.46191406 C25.8293457,7.10546875 26.0637207,6.86865234 26.3225098,6.75146484 C26.4006348,6.72705078 26.4519043,6.71484375 26.4763184,6.71484375 L26.4763184,6.71484375 L26.4909668,6.71484375 C26.4958496,6.72460938 26.4934082,6.74902344 26.4836426,6.78808594 C26.4396973,6.92480469 26.3286133,7.05419922 26.1503906,7.17626953 C25.972168,7.29833984 25.795166,7.39355469 25.6193848,7.46191406 Z M28.7614746,9.04394531 C29.2155762,9.01464844 29.6672363,8.58007812 30.1164551,7.74023438 C30.1311035,7.70605469 30.1335449,7.671875 30.1237793,7.63769531 C30.1140137,7.60351562 30.092041,7.57666016 30.0578613,7.55712891 C30.0236816,7.54248047 29.989502,7.54003906 29.9553223,7.54980469 C29.9211426,7.55957031 29.8942871,7.58154297 29.8747559,7.61572266 C29.479248,8.34814453 29.1057129,8.73388672 28.7541504,8.77294922 C28.7297363,8.77294922 28.7102051,8.76318359 28.6955566,8.74365234 C28.6174316,8.57763672 28.6308594,8.26635742 28.7358398,7.80981445 C28.8408203,7.35327148 28.9689941,6.91748047 29.1203613,6.50244141 C29.1398926,6.45849609 29.1350098,6.41699219 29.1057129,6.37792969 C29.076416,6.33886719 29.0373535,6.31933594 28.9885254,6.31933594 C28.6125488,6.34863281 28.2609863,6.35107422 27.9338379,6.32666016 C27.8508301,6.31201172 27.7775879,6.32910156 27.7141113,6.37792969 C27.6555176,6.421875 27.6213379,6.48535156 27.6115723,6.56835938 C27.5432129,6.90527344 27.4333496,7.24707031 27.2819824,7.59375 C27.267334,7.62792969 27.267334,7.66210938 27.2819824,7.69628906 C27.2966309,7.73046875 27.3210449,7.75488281 27.3552246,7.76953125 C27.3894043,7.78417969 27.423584,7.78540039 27.4577637,7.77319336 C27.4919434,7.76098633 27.5163574,7.73779297 27.5310059,7.70361328 C27.6921387,7.32763672 27.8117676,6.95898438 27.8898926,6.59765625 C28.1584473,6.6171875 28.4611816,6.61962891 28.7980957,6.60498047 C28.7297363,6.80029297 28.652832,7.04931641 28.5673828,7.35205078 C28.4819336,7.65478516 28.4221191,7.95019531 28.3879395,8.23828125 C28.3537598,8.52636719 28.3830566,8.74365234 28.4758301,8.89013672 C28.5393066,8.98779297 28.6345215,9.0390625 28.7614746,9.04394531 Z M30.3215332,8.98535156 C30.7219238,8.98535156 31.1882324,8.5703125 31.720459,7.74023438 C31.7399902,7.70605469 31.744873,7.671875 31.7351074,7.63769531 C31.7253418,7.60351563 31.7058105,7.57666016 31.6765137,7.55712891 C31.642334,7.53759766 31.6081543,7.53149414 31.5739746,7.53881836 C31.5397949,7.54614258 31.510498,7.56689453 31.486084,7.60107422 C31.2175293,8.03564453 30.9733887,8.33959961 30.7536621,8.51293945 C30.5339355,8.6862793 30.3654785,8.75097656 30.248291,8.70703125 C30.1750488,8.68261719 30.1201172,8.60083008 30.0834961,8.46166992 C30.046875,8.32250977 30.0480957,8.11132812 30.0871582,7.828125 C30.1359863,7.52539063 30.2250977,7.28369141 30.3544922,7.10302734 C30.4838867,6.92236328 30.6193848,6.80517578 30.7609863,6.75146484 C30.8586426,6.71728516 30.9343262,6.72216797 30.9880371,6.76611328 C31.0563965,6.82958984 31.0734863,6.94921875 31.0393066,7.125 C31.0344238,7.15917969 31.041748,7.19213867 31.0612793,7.22387695 C31.0808105,7.25561523 31.1101074,7.27392578 31.1491699,7.27880859 C31.1833496,7.28857422 31.2150879,7.28369141 31.2443848,7.26416016 C31.2736816,7.24462891 31.2932129,7.21533203 31.3029785,7.17626953 C31.3371582,6.99560547 31.3347168,6.85644531 31.2956543,6.75878906 C31.2565918,6.66113281 31.2126465,6.59521484 31.1638184,6.56103516 C31.0319824,6.45361328 30.8659668,6.43408203 30.6657715,6.50244141 C30.4997559,6.56103516 30.3337402,6.6953125 30.1677246,6.90527344 C30.001709,7.11523438 29.8845215,7.41064453 29.8161621,7.79150391 C29.7770996,8.07470703 29.7746582,8.296875 29.8088379,8.45800781 C29.8430176,8.61914062 29.8930664,8.73754883 29.9589844,8.81323242 C30.0249023,8.88891602 30.0895996,8.93652344 30.1530762,8.95605469 C30.2067871,8.97558594 30.2629395,8.98535156 30.3215332,8.98535156 Z M32.357666,8.98535156 C32.5773926,8.98535156 32.8129883,8.89746094 33.0644531,8.72167969 C33.315918,8.54589844 33.5539551,8.24316406 33.7785645,7.81347656 C33.7980957,7.77929688 33.8017578,7.74511719 33.7895508,7.7109375 C33.7773438,7.67675781 33.7541504,7.64990234 33.7199707,7.63037109 C33.685791,7.61572266 33.6516113,7.61328125 33.6174316,7.62304688 C33.583252,7.6328125 33.5563965,7.65478516 33.5368652,7.68896484 C33.2878418,8.15771484 33.036377,8.45800781 32.7824707,8.58984375 C32.5285645,8.72167969 32.3088379,8.74609375 32.123291,8.66308594 C31.9865723,8.60449219 31.8803711,8.49829102 31.8046875,8.34448242 C31.7290039,8.19067383 31.7155762,8.00390625 31.7644043,7.78417969 C31.9841309,7.73535156 32.2294922,7.62548828 32.5004883,7.45458984 C32.7714844,7.28369141 32.9436035,7.08349609 33.0168457,6.85400391 C33.0461426,6.73193359 33.0412598,6.63793945 33.0021973,6.57202148 C32.9631348,6.50610352 32.9094238,6.46582031 32.8410645,6.45117188 C32.6506348,6.40722656 32.4248047,6.49023438 32.1635742,6.70019531 C31.9023438,6.91015625 31.6984863,7.19091797 31.552002,7.54248047 C31.5080566,7.56689453 31.4836426,7.60595703 31.4787598,7.65966797 C31.4787598,7.68408203 31.4836426,7.70605469 31.4934082,7.72558594 C31.3859863,8.29199219 31.5617676,8.68994141 32.020752,8.91943359 C32.123291,8.96337891 32.2355957,8.98535156 32.357666,8.98535156 Z M31.888916,7.46191406 C32.098877,7.10546875 32.333252,6.86865234 32.592041,6.75146484 C32.670166,6.72705078 32.7214355,6.71484375 32.7458496,6.71484375 L32.7458496,6.71484375 L32.760498,6.71484375 C32.7653809,6.72460938 32.7629395,6.74902344 32.7531738,6.78808594 C32.7092285,6.92480469 32.5981445,7.05419922 32.4199219,7.17626953 C32.2416992,7.29833984 32.0646973,7.39355469 31.888916,7.46191406 Z M30.4680176,16.8295898 C31.2492676,16.8295898 31.8693848,16.6013184 32.3283691,16.1447754 C32.7873535,15.6882324 33.171875,15.0168457 33.4819336,14.1306152 C33.7919922,13.2443848 34.1008301,12.1518555 34.4084473,10.8530273 C35.482666,11.043457 36.4787598,11.3217773 37.3967285,11.6879883 C38.0900879,11.9516602 38.7529297,12.1494141 39.3852539,12.28125 C40.0175781,12.4130859 40.6157227,12.3679199 41.1796875,12.145752 C41.7436523,11.923584 42.2770996,11.4145508 42.7800293,10.6186523 C42.7995605,10.5844727 42.8044434,10.550293 42.7946777,10.5161133 C42.7849121,10.4819336 42.7653809,10.4526367 42.736084,10.4282227 C42.7019043,10.4086914 42.6665039,10.4038086 42.6298828,10.4135742 C42.5932617,10.4233398 42.5651855,10.4453125 42.5456543,10.4794922 C41.8620605,11.5488281 41.1125488,12.0810547 40.2971191,12.0761719 C39.4816895,12.0712891 38.5466309,11.8540039 37.4919434,11.4243164 C36.5983887,11.0678711 35.5925293,10.7895508 34.4743652,10.5893555 C34.5231934,10.394043 34.5720215,10.1962891 34.6208496,9.99609375 C34.8503418,9.04394531 35.1164551,7.984375 35.4191895,6.81738281 C35.4289551,6.77832031 35.425293,6.74291992 35.4082031,6.71118164 C35.3911133,6.67944336 35.3630371,6.65869141 35.3239746,6.64892578 C35.2849121,6.63916016 35.2495117,6.64404297 35.2177734,6.66357422 C35.1860352,6.68310547 35.1652832,6.70996094 35.1555176,6.74414063 L35.1555176,6.74414063 L35.1262207,6.86132813 C35.0529785,6.74902344 34.9528809,6.66357422 34.8259277,6.60498047 C34.635498,6.53662109 34.4304199,6.57568359 34.2106934,6.72216797 C33.9665527,6.90283203 33.7907715,7.16162109 33.6833496,7.49853516 C33.5759277,7.83544922 33.541748,8.15527344 33.5808105,8.45800781 C33.619873,8.75585938 33.7224121,8.93408203 33.8884277,8.99267578 C33.9372559,9.00732422 33.986084,9.01464844 34.0349121,9.01464844 C34.1325684,9.01464844 34.232666,8.98291016 34.3352051,8.91943359 C34.4572754,8.83642578 34.5720215,8.7265625 34.6794434,8.58984375 C34.5622559,9.05859375 34.4523926,9.50537109 34.3498535,9.93017578 C34.3449707,9.95947266 34.3376465,9.98876953 34.3278809,10.0180664 C34.2839355,10.2036133 34.2399902,10.3818359 34.1960449,10.5527344 C33.204834,10.4160156 32.1306152,10.5258789 30.9733887,10.8823242 C29.9333496,11.253418 29.2106934,11.7734375 28.8054199,12.4423828 C28.4001465,13.1113281 28.2268066,13.7753906 28.2854004,14.4345703 C28.427002,15.7480469 29.0471191,16.5415039 30.145752,16.8149414 L30.145752,16.8149414 L30.1677246,16.8149414 C30.2702637,16.824707 30.3703613,16.8295898 30.4680176,16.8295898 Z M34.0257568,8.75875854 L33.9763184,8.75097656 C33.9177246,8.73144531 33.8713379,8.62402344 33.8371582,8.42871094 C33.8078613,8.18945312 33.8334961,7.92211914 33.9140625,7.62670898 C33.9946289,7.33129883 34.1398926,7.10302734 34.3498535,6.94189453 C34.5012207,6.83935547 34.6281738,6.80761719 34.7307129,6.84667969 C34.8088379,6.88574219 34.8723145,6.94677734 34.9211426,7.02978516 C34.9699707,7.11279297 35.0041504,7.18359375 35.0236816,7.2421875 C34.989502,7.37402344 34.9553223,7.50341797 34.9211426,7.63037109 C34.8820801,7.75732422 34.7941895,7.93676758 34.6574707,8.16870117 C34.520752,8.40063477 34.3669434,8.57763672 34.1960449,8.69970703 C34.1130371,8.75341797 34.0397949,8.77050781 33.9763184,8.75097656 L34.0257568,8.75875854 Z M30.3888388,16.5545597 L30.1896973,16.5439453 C29.232666,16.2949219 28.6906738,15.5844727 28.5637207,14.4125977 C28.5100098,13.8120117 28.6711426,13.2041016 29.0471191,12.5888672 C29.4230957,11.9736328 30.0944824,11.4926758 31.0612793,11.1459961 C32.1647949,10.8041992 33.1877441,10.6967773 34.130127,10.8237305 C33.6516113,12.8989258 33.1450195,14.3930664 32.6103516,15.3061523 C32.0756836,16.2192383 31.2687988,16.6318359 30.1896973,16.5439453 L30.3888388,16.5545597 Z" id="path-1"></path>
    </defs>
    <g id="Page-1" stroke="none" stroke-width="1" fill="none" fill-rule="evenodd">
        <g id="JelenaHerceg" fill-rule="nonzero" fill="#000000">
            <use xlink:href="#path-1"></use>
            <use xlink:href="#path-1"></use>
        </g>
    </g>
</svg>