<?xml version="1.0" encoding="UTF-8"?>
<svg width="43px" height="17px" viewBox="0 0 43 17" version="1.1" xmlns="http://www.w3.org/2000/svg" xmlns:xlink="http://www.w3.org/1999/xlink">
    <!-- Generator: Sketch 62 (91390) - https://sketch.com -->
    <title>JelenaHerceg</title>
    <desc>Created with Sketch.</desc>
    <defs>
        <path d="M1.06118114,15.5895996 C1.24672801,15.5993652 1.47988231,15.5310059 1.76064403,15.3845215 C2.04140575,15.2380371 2.36733348,14.9584961 2.73842723,14.5458984 C3.10952098,14.1333008 3.52211864,13.5314941 3.9762202,12.7404785 C4.69887645,11.5246582 5.3043452,10.1818848 5.79262645,8.7121582 C6.76430614,8.52661133 7.81899364,8.47045898 8.95668895,8.54370117 C8.99086864,8.54858398 9.02138622,8.53881836 9.04824168,8.5144043 C9.07509715,8.48999023 9.08852489,8.46069336 9.08852489,8.42651367 C9.0934077,8.38745117 9.08364207,8.35571289 9.05922801,8.33129883 C9.03481395,8.30688477 9.00551707,8.29223633 8.97133739,8.28735352 C7.86782176,8.21411133 6.83998973,8.26049805 5.88784129,8.42651367 C6.39565379,6.82006836 6.72036082,5.39428711 6.86196239,4.14916992 C6.95961864,3.2409668 6.9840327,2.51098633 6.93520457,1.95922852 C6.88637645,1.4074707 6.79482372,0.991210938 6.66054637,0.710449219 C6.52626903,0.4296875 6.38100536,0.240478516 6.22475536,0.142822266 C5.93666942,-0.0476074219 5.60952098,-0.0476074219 5.24331004,0.142822266 C4.76967723,0.401611328 4.34975536,0.903320312 3.98354442,1.64794922 C3.61733348,2.39257812 3.42690379,3.26538086 3.41225536,4.26635742 C3.41225536,4.30541992 3.42446239,4.3371582 3.44887645,4.36157227 C3.47329051,4.38598633 3.50502879,4.39819336 3.54409129,4.39819336 C3.57827098,4.39331055 3.60756786,4.37866211 3.63198192,4.35424805 C3.65639598,4.32983398 3.66860301,4.30053711 3.66860301,4.26635742 C3.68813426,3.32397461 3.86879832,2.4987793 4.2105952,1.79077148 C4.55239207,1.08276367 4.93813426,0.609130859 5.36782176,0.369873047 C5.64125926,0.228271484 5.87807567,0.223388672 6.07827098,0.355224609 C6.17592723,0.404052734 6.28456981,0.544433594 6.40419872,0.776367188 C6.52382762,1.00830078 6.61171825,1.38793945 6.66787059,1.9152832 C6.72402293,2.44262695 6.70327098,3.17749023 6.60561473,4.11987305 C6.46401317,5.3894043 6.12709911,6.84448242 5.59487254,8.48510742 C4.42788036,8.72436523 3.40981395,9.14428711 2.54067332,9.74487305 C1.2418452,10.682373 0.426415512,11.8395996 0.0943842622,13.2165527 C-0.0276860503,13.7976074 -0.0313481596,14.2956543 0.0833979341,14.7106934 C0.198144028,15.1257324 0.416649887,15.3991699 0.738915512,15.5310059 C0.817040512,15.5700684 0.924462387,15.5895996 1.06118114,15.5895996 Z M2.01332957,14.8937988 C1.51039989,15.2844238 1.11733348,15.4162598 0.834130356,15.2893066 C0.580224106,15.1818848 0.409325668,14.9450684 0.321435043,14.5788574 C0.233544418,14.2126465 0.243310043,13.7756348 0.350731918,13.2678223 C0.663231918,11.9592285 1.44204051,10.8581543 2.6871577,9.96459961 C3.48793895,9.40795898 4.42543895,9.01000977 5.4996577,8.77075195 C5.02602489,10.1721191 4.44252879,11.451416 3.74916942,12.6086426 C3.09487254,13.7414551 2.51625926,14.5031738 2.01332957,14.8937988 Z M7.68227489,8.41186523 C7.90200145,8.41186523 8.13759715,8.32397461 8.389062,8.14819336 C8.64052684,7.97241211 8.87856395,7.66967773 9.10317332,7.23999023 C9.12270457,7.20581055 9.12636668,7.17163086 9.11415965,7.13745117 C9.10195262,7.10327148 9.07875926,7.07641602 9.04457957,7.05688477 C9.01039989,7.04223633 8.9762202,7.03979492 8.94204051,7.04956055 C8.90786082,7.05932617 8.88100536,7.08129883 8.86147411,7.11547852 C8.61245067,7.58422852 8.36098582,7.88452148 8.10707957,8.01635742 C7.85317332,8.14819336 7.63344676,8.17260742 7.44789989,8.08959961 C7.31118114,8.03100586 7.20497997,7.92480469 7.12929637,7.77099609 C7.05361278,7.6171875 7.04018504,7.43041992 7.08901317,7.21069336 C7.30873973,7.16186523 7.55410106,7.05200195 7.82509715,6.88110352 C8.09609325,6.71020508 8.26821239,6.51000977 8.34145457,6.28051758 C8.37075145,6.15844727 8.36586864,6.06445313 8.32680614,5.99853516 C8.28774364,5.93261719 8.2340327,5.89233398 8.16567332,5.87768555 C7.97524364,5.83374023 7.74941356,5.91674805 7.48818309,6.12670898 C7.22695262,6.33666992 7.0230952,6.61743164 6.87661082,6.96899414 C6.83266551,6.9934082 6.80825145,7.0324707 6.80336864,7.08618164 C6.80336864,7.1105957 6.80825145,7.13256836 6.81801707,7.15209961 C6.7105952,7.71850586 6.88637645,8.11645508 7.34536082,8.34594727 C7.44789989,8.38989258 7.56020457,8.41186523 7.68227489,8.41186523 Z M7.21352489,6.88842773 C7.42348582,6.53198242 7.65786082,6.29516602 7.91664989,6.17797852 C7.99477489,6.15356445 8.04604442,6.14135742 8.07045848,6.14135742 L8.07045848,6.14135742 L8.08510692,6.14135742 C8.08998973,6.15112305 8.08754832,6.17553711 8.0777827,6.21459961 C8.03383739,6.35131836 7.9227534,6.48071289 7.74453075,6.6027832 C7.56630809,6.72485352 7.38930614,6.82006836 7.21352489,6.88842773 Z M9.45473582,8.42651367 C9.54262645,8.42651367 9.64516551,8.39477539 9.76235301,8.33129883 C9.87954051,8.26782227 10.0064936,8.14575195 10.1432124,7.96508789 C10.2799311,7.78442383 10.4239741,7.52563477 10.5753413,7.1887207 C10.5899897,7.15454102 10.5912104,7.12158203 10.5790034,7.08984375 C10.5667964,7.05810547 10.543603,7.03491211 10.5094233,7.02026367 C10.4752436,7.00561523 10.4422847,7.00439453 10.4105464,7.01660156 C10.3788081,7.02880859 10.3556147,7.05200195 10.3409663,7.08618164 C10.140771,7.52563477 9.95766551,7.82470703 9.79164989,7.98339844 C9.62563426,8.14208984 9.49135692,8.19946289 9.38881786,8.15551758 C9.27651317,8.11157227 9.19228465,8.00048828 9.13613231,7.82226562 C9.07997997,7.64404297 9.07875926,7.43774414 9.1324702,7.20336914 L9.1324702,7.20336914 L9.87954051,4.03198242 C9.76235301,3.94897461 9.67202098,3.95141602 9.60854442,4.03930664 L9.60854442,4.03930664 L8.87612254,7.14477539 C8.81264598,7.43286133 8.8211909,7.6965332 8.90175731,7.93579102 C8.98232372,8.17504883 9.11538036,8.33129883 9.30092723,8.40454102 C9.34487254,8.41918945 9.39614207,8.42651367 9.45473582,8.42651367 Z M11.1466304,8.41186523 C11.3663569,8.41186523 11.6019526,8.32397461 11.8534175,8.14819336 C12.1048823,7.97241211 12.3429194,7.66967773 12.5675288,7.23999023 C12.58706,7.20581055 12.5907222,7.17163086 12.5785151,7.13745117 C12.5663081,7.10327148 12.5431147,7.07641602 12.508935,7.05688477 C12.4747554,7.04223633 12.4405757,7.03979492 12.406396,7.04956055 C12.3722163,7.05932617 12.3453608,7.08129883 12.3258296,7.11547852 C12.0768061,7.58422852 11.8253413,7.88452148 11.571435,8.01635742 C11.3175288,8.14819336 11.0978022,8.17260742 10.9122554,8.08959961 C10.7755366,8.03100586 10.6693354,7.92480469 10.5936518,7.77099609 C10.5179682,7.6171875 10.5045405,7.43041992 10.5533686,7.21069336 C10.7730952,7.16186523 11.0184565,7.05200195 11.2894526,6.88110352 C11.5604487,6.71020508 11.7325679,6.51000977 11.80581,6.28051758 C11.8351069,6.15844727 11.8302241,6.06445313 11.7911616,5.99853516 C11.7520991,5.93261719 11.6983882,5.89233398 11.6300288,5.87768555 C11.4395991,5.83374023 11.213769,5.91674805 10.9525386,6.12670898 C10.6913081,6.33666992 10.4874507,6.61743164 10.3409663,6.96899414 C10.297021,6.9934082 10.2726069,7.0324707 10.2677241,7.08618164 C10.2677241,7.1105957 10.2726069,7.13256836 10.2823725,7.15209961 C10.1749507,7.71850586 10.3507319,8.11645508 10.8097163,8.34594727 C10.9122554,8.38989258 11.02456,8.41186523 11.1466304,8.41186523 Z M10.6778804,6.88842773 C10.8878413,6.53198242 11.1222163,6.29516602 11.3810054,6.17797852 C11.4591304,6.15356445 11.5103999,6.14135742 11.5348139,6.14135742 L11.5348139,6.14135742 L11.5494624,6.14135742 C11.5543452,6.15112305 11.5519038,6.17553711 11.5421382,6.21459961 C11.4981929,6.35131836 11.3871089,6.48071289 11.2088862,6.6027832 C11.0306636,6.72485352 10.8536616,6.82006836 10.6778804,6.88842773 Z M13.7906733,8.44848633 C14.1617671,8.41430664 14.5377436,7.98950195 14.918603,7.17407227 C14.9332514,7.13989258 14.9344722,7.10693359 14.9222651,7.07519531 C14.9100581,7.04345703 14.8868647,7.02026367 14.852685,7.00561523 C14.8185054,6.9909668 14.7855464,6.98974609 14.7538081,7.00195312 C14.7220698,7.01416016 14.696435,7.03735352 14.6769038,7.0715332 C14.4767085,7.5012207 14.2911616,7.80029297 14.1202632,7.96875 C13.9493647,8.13720703 13.8321772,8.20678711 13.7687007,8.17749023 C13.7442866,8.17260742 13.7223139,8.13842773 13.7027827,8.07495117 C13.6832514,8.01147461 13.6783686,7.90893555 13.6881343,7.76733398 C13.6978999,7.62573242 13.7369624,7.43530273 13.8053218,7.19604492 C13.8102046,7.1862793 13.812646,7.17895508 13.812646,7.17407227 C14.0372554,6.40258789 14.0299311,5.99243164 13.7906733,5.94360352 C13.6344233,5.91430664 13.446435,6.02294922 13.2267085,6.26953125 C13.0069819,6.51611328 12.7945796,6.81274414 12.5895014,7.15942383 L12.5895014,7.15942383 L12.875146,5.98754883 C12.8849116,5.94848633 12.8800288,5.91430664 12.8604975,5.88500977 C12.8409663,5.85571289 12.8141108,5.83618164 12.7799311,5.82641602 C12.7457514,5.8215332 12.7140132,5.82763672 12.6847163,5.84472656 C12.6554194,5.86181641 12.6358882,5.88745117 12.6261225,5.92163086 L12.6261225,5.92163086 L12.0548335,8.25073242 L12.0548335,8.25073242 L12.0548335,8.30932617 C12.0597163,8.31420898 12.0621577,8.3190918 12.0621577,8.32397461 L12.0621577,8.32397461 C12.0670405,8.33374023 12.0694819,8.34106445 12.0694819,8.34594727 L12.0694819,8.34594727 C12.0792475,8.35571289 12.0841304,8.36303711 12.0841304,8.36791992 C12.0890132,8.36791992 12.0914546,8.37036133 12.0914546,8.37524414 C12.0963374,8.38012695 12.1012202,8.38256836 12.106103,8.38256836 C12.106103,8.38745117 12.1085444,8.38989258 12.1134272,8.38989258 L12.1134272,8.38989258 C12.1231929,8.39477539 12.1305171,8.3996582 12.1353999,8.40454102 L12.1353999,8.40454102 L12.1500483,8.40454102 L12.1500483,8.40454102 L12.1500483,8.41186523 L12.1866694,8.41186523 L12.1866694,8.41186523 L12.2031489,8.41003418 L12.2031489,8.41003418 L12.2232905,8.40454102 L12.2232905,8.40454102 L12.2434321,8.3972168 L12.2434321,8.3972168 L12.2599116,8.38989258 L12.2599116,8.38989258 L12.27456,8.37524414 L12.27456,8.37524414 L12.2892085,8.3605957 L12.2892085,8.3605957 L12.2965327,8.34411621 L12.2965327,8.34411621 L12.3038569,8.32397461 L12.3038569,8.32397461 L12.3887721,8.10218811 C12.4816981,7.87834167 12.5986567,7.64831543 12.7396479,7.41210937 C12.9276362,7.09716797 13.1131831,6.82495117 13.2962886,6.59545898 C13.479394,6.3659668 13.6148921,6.23413086 13.7027827,6.19995117 C13.7174311,6.21948242 13.7198725,6.2902832 13.7101069,6.41235352 C13.7003413,6.53442383 13.6588374,6.74194336 13.5855952,7.03491211 L13.5855952,7.03491211 C13.4781733,7.3815918 13.4232417,7.65258789 13.4208003,7.84790039 C13.4183589,8.04321289 13.4439936,8.18359375 13.4977046,8.26904297 C13.5514155,8.35449219 13.6100093,8.40698242 13.6734858,8.42651367 C13.7125483,8.44116211 13.7516108,8.44848633 13.7906733,8.44848633 Z M15.0357905,8.41918945 C15.1383296,8.41918945 15.24331,8.38500977 15.3507319,8.31665039 C15.5265132,8.19458008 15.687646,8.01635742 15.8341304,7.78198242 C15.843896,7.99682617 15.8976069,8.15551758 15.9952632,8.25805664 C16.0685054,8.33129883 16.1515132,8.36791992 16.2442866,8.36791992 C16.2735835,8.36791992 16.3028804,8.36547852 16.3321772,8.3605957 C16.6593257,8.25805664 16.9254389,7.86743164 17.1305171,7.1887207 C17.1402827,7.1496582 17.1366206,7.11425781 17.1195307,7.08251953 C17.1024409,7.05078125 17.0743647,7.0300293 17.0353022,7.02026367 C17.0011225,7.01049805 16.9681636,7.01416016 16.9364253,7.03125 C16.904687,7.04833984 16.883935,7.07397461 16.8741694,7.1081543 C16.781396,7.4206543 16.6788569,7.65869141 16.5665522,7.82226562 C16.4542475,7.98583984 16.3541499,8.07739258 16.2662593,8.09692383 C16.2516108,8.10180664 16.2381831,8.10180664 16.2259761,8.09692383 C16.213769,8.09204102 16.2027827,8.0847168 16.1930171,8.07495117 C16.1490718,8.03588867 16.1197749,7.93457031 16.1051264,7.77099609 C16.090478,7.60742188 16.1222163,7.36938477 16.2003413,7.05688477 C16.2247554,6.98852539 16.2394038,6.93725586 16.2442866,6.90307617 L16.2442866,6.90307617 L16.2442866,6.85180664 L16.2442866,6.85180664 L16.2369624,6.84448242 L16.2369624,6.84448242 L16.2369624,6.82983398 C16.2320796,6.82983398 16.2296382,6.82739258 16.2296382,6.82250977 C16.2296382,6.81762695 16.2271968,6.81518555 16.2223139,6.81518555 L16.2223139,6.81518555 L16.2223139,6.80786133 C16.2174311,6.7980957 16.2125483,6.79321289 16.2076655,6.79321289 L16.2076655,6.79321289 L16.2076655,6.78588867 L16.2003413,6.78588867 L16.2003413,6.77856445 L16.1856929,6.77856445 L16.1856929,6.77856445 C16.18081,6.77368164 16.1783686,6.76879883 16.1783686,6.76391602 L16.1783686,6.76391602 L16.1637202,6.76391602 C16.1588374,6.7590332 16.1539546,6.7565918 16.1490718,6.7565918 L16.1490718,6.7565918 L16.1344233,6.7565918 C16.1344233,6.75170898 16.1319819,6.74926758 16.1270991,6.74926758 L16.1270991,6.74926758 L16.0733882,6.7565918 C16.0408361,6.76635742 16.0147944,6.78588867 15.9952632,6.81518555 L15.9952632,6.81518555 C15.9903804,6.82006836 15.9879389,6.82495117 15.9879389,6.82983398 L15.9879389,6.82983398 C15.9830561,6.83959961 15.9806147,6.84448242 15.9806147,6.84448242 L15.9806147,6.84448242 L15.9604731,6.91589355 L15.9604731,6.91589355 L15.9439936,6.98364258 C15.8902827,7.13012695 15.7950679,7.32055664 15.6583491,7.55493164 C15.5216304,7.78930664 15.3702632,7.9675293 15.2042475,8.08959961 C15.1603022,8.11889648 15.1236811,8.13720703 15.0943843,8.14453125 C15.0650874,8.15185547 15.0406733,8.15307617 15.0211421,8.14819336 C15.0016108,8.14331055 14.9894038,8.14086914 14.984521,8.14086914 C14.9259272,8.12133789 14.8770991,8.0090332 14.8380366,7.80395508 C14.8087397,7.55981445 14.8368159,7.28271484 14.9222651,6.97265625 C15.0077143,6.66259766 15.1603022,6.42456055 15.3800288,6.25854492 C15.531396,6.15600586 15.6559077,6.12426758 15.7535639,6.16333008 C15.8316889,6.20727539 15.8902827,6.27685547 15.9293452,6.37207031 C15.9684077,6.46728516 15.9928218,6.54174805 16.0025874,6.59545898 L16.0115392,6.63126628 C16.0202198,6.65296766 16.0343257,6.67032878 16.0538569,6.68334961 C16.0831538,6.70288086 16.1173335,6.71020508 16.156396,6.70532227 C16.1954585,6.70043945 16.2247554,6.68334961 16.2442866,6.65405273 C16.2638179,6.62475586 16.2711421,6.59057617 16.2662593,6.55151367 C16.2662593,6.53198242 16.2540522,6.48071289 16.2296382,6.39770508 C16.2052241,6.31469727 16.1637202,6.22680664 16.1051264,6.1340332 C16.0465327,6.04125977 15.9635249,5.96801758 15.856103,5.91430664 C15.6705561,5.83618164 15.4605952,5.87524414 15.2262202,6.03149414 C14.9723139,6.21704102 14.7904292,6.4855957 14.6805659,6.8371582 C14.5707026,7.1887207 14.5353022,7.52319336 14.5743647,7.84057617 C14.6134272,8.14819336 14.7208491,8.33374023 14.8966304,8.3972168 C14.9405757,8.41186523 14.9869624,8.41918945 15.0357905,8.41918945 Z M18.7271968,11.3708496 C18.7613764,11.3708496 18.7906733,11.3598633 18.8150874,11.3378906 C18.8395014,11.315918 18.8541499,11.2878418 18.8590327,11.2536621 C18.8590327,11.2243652 18.8614741,11.126709 18.8663569,10.9606934 C18.9054194,10.267334 19.0067378,9.46899414 19.170312,8.56567383 C19.3338862,7.66235352 19.5255366,6.73950195 19.7452632,5.79711914 C20.6729975,5.56762695 21.6690913,5.37963867 22.7335444,5.2331543 C22.3478022,6.55639648 22.1134272,7.68920898 22.0304194,8.6315918 C21.9718257,9.59350586 22.1549311,10.098877 22.5797358,10.1477051 L22.5797358,10.1477051 L22.6310054,10.1477051 C22.9483882,10.1281738 23.3011714,9.90844727 23.689355,9.48852539 C24.0775386,9.06860352 24.4278804,8.57299805 24.7403804,8.00170898 C24.8429194,7.80639648 24.9332514,7.6184082 25.0113764,7.43774414 C25.1090327,7.20336914 25.1114741,7.0715332 25.0187007,7.04223633 C24.9698725,7.01782227 24.9259272,7.01782227 24.8868647,7.04223633 C24.7892085,7.31079102 24.6598139,7.59399414 24.4986811,7.8918457 C24.1959468,8.4387207 23.8663569,8.90869141 23.5099116,9.30175781 C23.1534663,9.69482422 22.8531733,9.88891602 22.6090327,9.8840332 C22.3502436,9.84008789 22.2428218,9.42993164 22.2867671,8.65356445 C22.3746577,7.70629883 22.6163569,6.55639648 23.0118647,5.20385742 C23.4903804,5.14526367 23.9591304,5.10864258 24.4181147,5.09399414 C24.4522944,5.09399414 24.4815913,5.08178711 24.5060054,5.05737305 C24.5304194,5.03295898 24.5426264,5.0012207 24.5426264,4.9621582 C24.5377436,4.92797852 24.5230952,4.89868164 24.4986811,4.87426758 C24.4742671,4.84985352 24.4449702,4.83764648 24.4107905,4.83764648 C23.981103,4.84741211 23.5416499,4.87915039 23.0924311,4.93286133 C23.3414546,4.08813477 23.5855952,3.31665039 23.824853,2.6184082 C23.9420405,2.27172852 24.0445796,1.96899414 24.1324702,1.71020508 C24.2252436,1.45629883 24.3033686,1.24633789 24.3668452,1.08032227 C24.3570796,1.16821289 24.3375483,1.28295898 24.3082514,1.42456055 C24.3033686,1.46362305 24.3106929,1.49658203 24.3302241,1.5234375 C24.3497554,1.55029297 24.3766108,1.56860352 24.4107905,1.57836914 C24.449853,1.58325195 24.4840327,1.57592773 24.5133296,1.55639648 C24.5426264,1.53686523 24.5597163,1.51000977 24.5645991,1.47583008 C24.6817866,0.914306641 24.6549311,0.616455078 24.4840327,0.582275391 C24.4303218,0.567626953 24.3802729,0.574951172 24.3338862,0.604248047 C24.2874995,0.633544922 24.2520991,0.672607422 24.227685,0.721435547 C24.1739741,0.843505859 24.0519038,1.1706543 23.8614741,1.70288086 L23.8614741,1.70288086 L23.7003413,2.16430664 C23.4171382,2.97485352 23.1192866,3.9074707 22.8067866,4.9621582 C21.7472163,5.10375977 20.7486811,5.28686523 19.8111811,5.51147461 C20.152978,4.10522461 20.465478,2.90039063 20.7486811,1.89697266 C21.0318843,0.893554688 21.1832514,0.357666016 21.2027827,0.289306641 C21.2125483,0.255126953 21.2101069,0.223388672 21.1954585,0.194091797 C21.18081,0.164794922 21.156396,0.142822266 21.1222163,0.128173828 C21.0831538,0.118408203 21.0489741,0.122070313 21.0196772,0.139160156 C20.9903804,0.15625 20.9684077,0.181884766 20.9537593,0.216064453 C20.9293452,0.284423828 20.7718745,0.836181641 20.4813472,1.87133789 C20.1908198,2.90649414 19.8746577,4.1418457 19.5328608,5.57739258 C18.8687983,5.7434082 18.3145991,5.89233398 17.8702632,6.02416992 C17.8556147,6.18041992 17.9020014,6.2487793 18.0094233,6.22924805 C18.3268061,6.15112305 18.812646,6.02905273 19.4669429,5.86303711 C19.1837397,7.07885742 18.9542475,8.2409668 18.7784663,9.34936523 L18.7784663,9.34936523 L18.7784663,9.3347168 L18.6100093,10.7995605 C18.6100093,10.8728027 18.6075679,10.9411621 18.602685,11.0046387 C18.602685,11.0827637 18.6002436,11.1608887 18.5953608,11.2390137 C18.5953608,11.2780762 18.6075679,11.3098145 18.6319819,11.3342285 C18.656396,11.3586426 18.6856929,11.3708496 18.7198725,11.3708496 L18.7198725,11.3708496 L18.7271968,11.3708496 Z M25.7511225,8.41186523 C25.9708491,8.41186523 26.2064448,8.32397461 26.4579097,8.14819336 C26.7093745,7.97241211 26.9474116,7.66967773 27.172021,7.23999023 C27.1915522,7.20581055 27.1952143,7.17163086 27.1830073,7.13745117 C27.1708003,7.10327148 27.1476069,7.07641602 27.1134272,7.05688477 C27.0792475,7.04223633 27.0450679,7.03979492 27.0108882,7.04956055 C26.9767085,7.05932617 26.949853,7.08129883 26.9303218,7.11547852 C26.6812983,7.58422852 26.4298335,7.88452148 26.1759272,8.01635742 C25.922021,8.14819336 25.7022944,8.17260742 25.5167475,8.08959961 C25.3800288,8.03100586 25.2738276,7.92480469 25.198144,7.77099609 C25.1224604,7.6171875 25.1090327,7.43041992 25.1578608,7.21069336 C25.3775874,7.16186523 25.6229487,7.05200195 25.8939448,6.88110352 C26.1649409,6.71020508 26.33706,6.51000977 26.4103022,6.28051758 C26.4395991,6.15844727 26.4347163,6.06445313 26.3956538,5.99853516 C26.3565913,5.93261719 26.3028804,5.89233398 26.234521,5.87768555 C26.0440913,5.83374023 25.8182612,5.91674805 25.5570307,6.12670898 C25.2958003,6.33666992 25.0919429,6.61743164 24.9454585,6.96899414 C24.9015132,6.9934082 24.8770991,7.0324707 24.8722163,7.08618164 C24.8722163,7.1105957 24.8770991,7.13256836 24.8868647,7.15209961 C24.7794429,7.71850586 24.9552241,8.11645508 25.4142085,8.34594727 C25.5167475,8.38989258 25.6290522,8.41186523 25.7511225,8.41186523 Z M25.2823725,6.88842773 C25.4923335,6.53198242 25.7267085,6.29516602 25.9854975,6.17797852 C26.0636225,6.15356445 26.1148921,6.14135742 26.1393061,6.14135742 L26.1393061,6.14135742 L26.1539546,6.14135742 C26.1588374,6.15112305 26.156396,6.17553711 26.1466304,6.21459961 C26.102685,6.35131836 25.9916011,6.48071289 25.8133784,6.6027832 C25.6351557,6.72485352 25.4581538,6.82006836 25.2823725,6.88842773 Z M28.4244624,8.47045898 C28.8785639,8.44116211 29.3302241,8.0065918 29.7794429,7.16674805 C29.7940913,7.13256836 29.7965327,7.09838867 29.7867671,7.06420898 C29.7770014,7.0300293 29.7550288,7.00317383 29.7208491,6.98364258 C29.6866694,6.96899414 29.6524897,6.96655273 29.61831,6.97631836 C29.5841304,6.98608398 29.5572749,7.00805664 29.5377436,7.04223633 C29.1422358,7.7746582 28.7687007,8.16040039 28.4171382,8.19946289 C28.3927241,8.19946289 28.3731929,8.18969727 28.3585444,8.17016602 C28.2804194,8.00415039 28.2938472,7.69287109 28.3988276,7.23632812 C28.5038081,6.77978516 28.6319819,6.34399414 28.7833491,5.92895508 C28.8028804,5.88500977 28.7979975,5.84350586 28.7687007,5.80444336 C28.7394038,5.76538086 28.7003413,5.74584961 28.6515132,5.74584961 C28.2755366,5.77514648 27.9239741,5.77758789 27.5968257,5.75317383 C27.5138179,5.73852539 27.4405757,5.75561523 27.3770991,5.80444336 C27.3185054,5.84838867 27.2843257,5.91186523 27.27456,5.99487305 C27.2062007,6.33178711 27.0963374,6.67358398 26.9449702,7.02026367 C26.9303218,7.05444336 26.9303218,7.08862305 26.9449702,7.12280273 C26.9596186,7.15698242 26.9840327,7.18139648 27.0182124,7.19604492 C27.0523921,7.21069336 27.0865718,7.21191406 27.1207514,7.19970703 C27.1549311,7.1875 27.1793452,7.16430664 27.1939936,7.13012695 C27.3551264,6.75415039 27.4747554,6.38549805 27.5528804,6.02416992 C27.821435,6.04370117 28.1241694,6.04614258 28.4610835,6.03149414 C28.3927241,6.22680664 28.3158198,6.47583008 28.2303706,6.77856445 C28.1449214,7.08129883 28.0851069,7.37670898 28.0509272,7.66479492 C28.0167475,7.95288086 28.0460444,8.17016602 28.1388179,8.31665039 C28.2022944,8.41430664 28.2975093,8.46557617 28.4244624,8.47045898 Z M29.984521,8.41186523 C30.3849116,8.41186523 30.8512202,7.99682617 31.3834468,7.16674805 C31.402978,7.13256836 31.4078608,7.09838867 31.3980952,7.06420898 C31.3883296,7.0300293 31.3687983,7.00317383 31.3395014,6.98364258 C31.3053218,6.96411133 31.2711421,6.95800781 31.2369624,6.96533203 C31.2027827,6.97265625 31.1734858,6.9934082 31.1490718,7.02758789 C30.8805171,7.4621582 30.6363764,7.76611328 30.4166499,7.93945313 C30.1969233,8.11279297 30.0284663,8.17749023 29.9112788,8.13354492 C29.8380366,8.10913086 29.783105,8.02734375 29.7464839,7.88818359 C29.7098628,7.74902344 29.7110835,7.5378418 29.750146,7.25463867 C29.7989741,6.9519043 29.8880854,6.71020508 30.01748,6.52954102 C30.1468745,6.34887695 30.2823725,6.23168945 30.4239741,6.17797852 C30.5216304,6.14379883 30.5973139,6.14868164 30.6510249,6.19262695 C30.7193843,6.25610352 30.7364741,6.37573242 30.7022944,6.55151367 C30.6974116,6.58569336 30.7047358,6.61865234 30.7242671,6.65039063 C30.7437983,6.68212891 30.7730952,6.70043945 30.8121577,6.70532227 C30.8463374,6.71508789 30.8780757,6.71020508 30.9073725,6.69067383 C30.9366694,6.67114258 30.9562007,6.6418457 30.9659663,6.6027832 C31.000146,6.42211914 30.9977046,6.28295898 30.9586421,6.18530273 C30.9195796,6.08764648 30.8756343,6.02172852 30.8268061,5.98754883 C30.6949702,5.88012695 30.5289546,5.8605957 30.3287593,5.92895508 C30.1627436,5.98754883 29.996728,6.12182617 29.8307124,6.33178711 C29.6646968,6.54174805 29.5475093,6.8371582 29.4791499,7.21801758 C29.4400874,7.5012207 29.437646,7.72338867 29.4718257,7.88452148 C29.5060054,8.0456543 29.5560542,8.1640625 29.6219722,8.23974609 C29.6878901,8.31542969 29.7525874,8.36303711 29.8160639,8.38256836 C29.8697749,8.40209961 29.9259272,8.41186523 29.984521,8.41186523 Z M32.0206538,8.41186523 C32.2403804,8.41186523 32.4759761,8.32397461 32.7274409,8.14819336 C32.9789057,7.97241211 33.2169429,7.66967773 33.4415522,7.23999023 C33.4610835,7.20581055 33.4647456,7.17163086 33.4525386,7.13745117 C33.4403315,7.10327148 33.4171382,7.07641602 33.3829585,7.05688477 C33.3487788,7.04223633 33.3145991,7.03979492 33.2804194,7.04956055 C33.2462397,7.05932617 33.2193843,7.08129883 33.199853,7.11547852 C32.9508296,7.58422852 32.6993647,7.88452148 32.4454585,8.01635742 C32.1915522,8.14819336 31.9718257,8.17260742 31.7862788,8.08959961 C31.64956,8.03100586 31.5433589,7.92480469 31.4676753,7.77099609 C31.3919917,7.6171875 31.3785639,7.43041992 31.4273921,7.21069336 C31.6471186,7.16186523 31.89248,7.05200195 32.1634761,6.88110352 C32.4344722,6.71020508 32.6065913,6.51000977 32.6798335,6.28051758 C32.7091304,6.15844727 32.7042475,6.06445313 32.665185,5.99853516 C32.6261225,5.93261719 32.5724116,5.89233398 32.5040522,5.87768555 C32.3136225,5.83374023 32.0877925,5.91674805 31.826562,6.12670898 C31.5653315,6.33666992 31.3614741,6.61743164 31.2149897,6.96899414 C31.1710444,6.9934082 31.1466304,7.0324707 31.1417475,7.08618164 C31.1417475,7.1105957 31.1466304,7.13256836 31.156396,7.15209961 C31.0489741,7.71850586 31.2247554,8.11645508 31.6837397,8.34594727 C31.7862788,8.38989258 31.8985835,8.41186523 32.0206538,8.41186523 Z M31.5519038,6.88842773 C31.7618647,6.53198242 31.9962397,6.29516602 32.2550288,6.17797852 C32.3331538,6.15356445 32.3844233,6.14135742 32.4088374,6.14135742 L32.4088374,6.14135742 L32.4234858,6.14135742 C32.4283686,6.15112305 32.4259272,6.17553711 32.4161616,6.21459961 C32.3722163,6.35131836 32.2611323,6.48071289 32.0829097,6.6027832 C31.904687,6.72485352 31.727685,6.82006836 31.5519038,6.88842773 Z M30.1310054,16.2561035 C30.9122554,16.2561035 31.5323725,16.027832 31.9913569,15.5712891 C32.4503413,15.1147461 32.8348628,14.4433594 33.1449214,13.5571289 C33.45498,12.6708984 33.7638179,11.5783691 34.071435,10.279541 C35.1456538,10.4699707 36.1417475,10.748291 37.0597163,11.114502 C37.7530757,11.3781738 38.4159175,11.5759277 39.0482417,11.7077637 C39.6805659,11.8395996 40.2787104,11.7944336 40.8426753,11.5722656 C41.4066401,11.3500977 41.9400874,10.8410645 42.4430171,10.045166 C42.4625483,10.0109863 42.4674311,9.97680664 42.4576655,9.94262695 C42.4478999,9.90844727 42.4283686,9.87915039 42.3990718,9.85473633 C42.3648921,9.83520508 42.3294917,9.83032227 42.2928706,9.84008789 C42.2562495,9.84985352 42.2281733,9.87182617 42.2086421,9.90600586 C41.5250483,10.9753418 40.7755366,11.5075684 39.9601069,11.5026855 C39.1446772,11.4978027 38.2096186,11.2805176 37.1549311,10.8508301 C36.2613764,10.4943848 35.2555171,10.2160645 34.137353,10.0158691 C34.1861811,9.82055664 34.2350093,9.62280273 34.2838374,9.42260742 C34.5133296,8.47045898 34.7794429,7.41088867 35.0821772,6.24389648 C35.0919429,6.20483398 35.0882807,6.16943359 35.0711909,6.13769531 C35.0541011,6.10595703 35.0260249,6.08520508 34.9869624,6.07543945 C34.9478999,6.06567383 34.9124995,6.07055664 34.8807612,6.09008789 C34.8490229,6.10961914 34.828271,6.13647461 34.8185054,6.1706543 L34.8185054,6.1706543 L34.7892085,6.2878418 C34.7159663,6.17553711 34.6158686,6.09008789 34.4889155,6.03149414 C34.2984858,5.96313477 34.0934077,6.00219727 33.8736811,6.14868164 C33.6295405,6.3293457 33.4537593,6.58813477 33.3463374,6.92504883 C33.2389155,7.26196289 33.2047358,7.58178711 33.2437983,7.88452148 C33.2828608,8.18237305 33.3853999,8.3605957 33.5514155,8.41918945 C33.6002436,8.43383789 33.6490718,8.44116211 33.6978999,8.44116211 C33.7955561,8.44116211 33.8956538,8.40942383 33.9981929,8.34594727 C34.1202632,8.26293945 34.2350093,8.15307617 34.3424311,8.01635742 C34.2252436,8.48510742 34.1153804,8.93188477 34.0128413,9.35668945 C34.0079585,9.38598633 34.0006343,9.4152832 33.9908686,9.44458008 C33.9469233,9.63012695 33.902978,9.80834961 33.8590327,9.97924805 C32.8678218,9.8425293 31.793603,9.95239258 30.6363764,10.3088379 C29.5963374,10.6799316 28.8736811,11.1999512 28.4684077,11.8688965 C28.0631343,12.5378418 27.8897944,13.2019043 27.9483882,13.861084 C28.0899897,15.1745605 28.7101069,15.9680176 29.8087397,16.2414551 L29.8087397,16.2414551 L29.8307124,16.2414551 C29.9332514,16.2512207 30.0333491,16.2561035 30.1310054,16.2561035 Z M33.6887446,8.18527222 L33.6393061,8.17749023 C33.5807124,8.15795898 33.5343257,8.05053711 33.500146,7.85522461 C33.4708491,7.6159668 33.4964839,7.34863281 33.5770503,7.05322266 C33.6576167,6.7578125 33.8028804,6.52954102 34.0128413,6.3684082 C34.1642085,6.26586914 34.2911616,6.23413086 34.3937007,6.27319336 C34.4718257,6.31225586 34.5353022,6.37329102 34.5841304,6.45629883 C34.6329585,6.53930664 34.6671382,6.61010742 34.6866694,6.66870117 C34.6524897,6.80053711 34.61831,6.92993164 34.5841304,7.05688477 C34.5450679,7.18383789 34.4571772,7.36328125 34.3204585,7.59521484 C34.1837397,7.82714844 34.0299311,8.00415039 33.8590327,8.1262207 C33.7760249,8.17993164 33.7027827,8.19702148 33.6393061,8.17749023 L33.6887446,8.18527222 Z M30.0518265,15.9810734 L29.852685,15.970459 C28.8956538,15.7214355 28.3536616,15.0109863 28.2267085,13.8391113 C28.1729975,13.2385254 28.3341304,12.6306152 28.7101069,12.0153809 C29.0860835,11.4001465 29.7574702,10.9191895 30.7242671,10.5725098 C31.8277827,10.2307129 32.8507319,10.123291 33.7931147,10.2502441 C33.3145991,12.3254395 32.8080073,13.8195801 32.2733393,14.732666 C31.7386714,15.645752 30.9317866,16.0583496 29.852685,15.970459 L30.0518265,15.9810734 Z" id="path-1"></path>
    </defs>
    <g id="Page-1" stroke="none" stroke-width="1" fill="none" fill-rule="evenodd">
        <g id="JelenaHerceg" fill-rule="nonzero">
            <use fill="#000000" xlink:href="#path-1"></use>
            <use fill="#FFFFFF" xlink:href="#path-1"></use>
        </g>
    </g>
</svg>